<svg width="266" height="187" viewBox="0 0 266 187" fill="none" xmlns="http://www.w3.org/2000/svg">
<g clip-path="url(#clip0_441_523)">
<mask id="mask0_441_523" style="mask-type:luminance" maskUnits="userSpaceOnUse" x="0" y="0" width="266" height="187">
<path d="M266 0H0V187H266V0Z" fill="white"/>
</mask>
<g mask="url(#mask0_441_523)">
<path d="M241.767 176.061H22.268V177.37H241.767V176.061Z" fill="#0E2E35"/>
<mask id="mask1_441_523" style="mask-type:luminance" maskUnits="userSpaceOnUse" x="0" y="0" width="266" height="187">
<path d="M0 0H266V187H0V0Z" fill="white"/>
</mask>
<g mask="url(#mask1_441_523)">
<path d="M89.5262 65.7359C89.3961 65.2337 88.9255 65.0833 87.7632 64.6998C85.6842 64.0139 83.6042 63.3276 81.5512 62.5697C81.2281 62.4504 80.8841 61.9783 80.8243 61.6231C80.4681 59.5111 80.2395 57.3772 79.862 55.2695C79.7449 54.6163 79.7886 54.2628 80.3583 53.8566C82.6354 52.2329 84.8673 50.5456 87.0912 48.9C86.3674 46.456 83.1281 41.0575 81.48 39.5915C79.088 40.7668 76.6261 41.9306 74.2136 43.1891C73.4627 43.5808 73.0648 43.5375 72.386 42.9613C70.8113 41.6245 69.1096 40.4275 67.3937 39.2713C66.6988 38.8031 66.321 38.4263 66.4829 37.4998C66.9026 35.098 67.1764 32.6713 67.5554 30.2619C67.6574 29.6143 67.5122 29.2217 66.8691 29.0633C63.8432 28.3186 60.8166 27.5781 57.7905 26.8343C57.0466 26.6514 56.9692 27.2584 56.812 27.6992C56.0165 29.9295 55.2084 32.1567 54.4882 34.4117C54.2179 35.2584 53.8063 35.556 52.9079 35.6371C50.5305 35.8518 48.1669 36.2214 45.6157 36.553C43.9656 34.343 42.1437 31.9029 40.2709 29.3949C36.8859 30.7402 33.8771 32.6334 31.0654 35.0687C32.3959 37.8 33.7268 40.5324 34.8996 42.9403C33.2671 45.2763 31.7072 47.4064 30.2762 49.6199C29.862 50.2606 29.5151 50.3825 28.8308 50.2738C26.4555 49.897 24.0687 49.5941 21.6907 49.2336C21.1766 49.1556 20.8029 49.1579 20.5753 49.7276C19.4256 52.6061 18.5337 55.5425 18.287 58.6565C18.2321 59.3507 18.4954 59.608 19.0768 59.8089C21.417 60.6177 23.7417 61.4712 26.085 62.2703C26.6527 62.4639 26.8985 62.6854 26.9885 63.3583C27.3006 65.6923 27.714 68.0156 28.1859 70.3232C28.3065 70.9128 28.131 71.155 27.7284 71.4551C25.4857 73.1278 23.2553 74.8171 20.9632 76.5438C22.3726 79.8681 24.1011 82.929 26.4822 85.6971C29.2703 84.3405 32.0403 82.9926 34.6912 81.7028C37.0921 83.4661 39.4169 85.1732 41.9043 87C41.6072 89.1204 41.2469 91.5609 40.9278 94.0067C40.666 96.0141 40.3659 95.7697 42.4106 96.4894C42.6057 96.558 42.776 96.6974 42.9577 96.804C44.7741 97.2357 46.5905 97.6675 48.4068 98.0994C48.8268 98.1222 49.2634 98.0791 49.6636 98.1804C50.7044 98.4439 51.2661 98.1779 51.6091 97.0603C52.3237 94.7316 53.1847 92.4463 54.0405 90.1637C54.1526 89.8648 54.559 89.536 54.8768 89.4766C56.9499 89.0898 59.0623 88.8815 61.107 88.388C62.1075 88.1464 62.5492 88.3976 63.0943 89.156C64.6407 91.3073 66.2755 93.3948 68.0361 95.7198C71.1392 93.8516 74.1661 92.0292 77.2273 90.1862C76.9422 89.5718 76.7839 89.2156 76.6133 88.8654C75.5607 86.7053 74.5275 84.5354 73.4366 82.3947C73.1268 81.7869 73.2455 81.4281 73.6431 80.8953C75.0093 79.0649 76.2577 77.1469 77.6118 75.3069C77.8218 75.0215 78.369 74.7976 78.7269 74.8382C80.6863 75.061 82.6331 75.3919 84.5886 75.6537C86.1706 75.8656 86.7589 75.9387 87.2243 75.3991L89.5262 65.7359ZM75.5159 66.7789C74.4002 72.5679 71.0956 77.5766 66.2107 80.8823C61.3259 84.1881 55.4454 85.3952 49.6529 84.2813C43.8604 83.1674 38.849 79.8656 35.542 74.9845C32.2348 70.1033 31.0279 64.2272 32.1437 58.4382C33.2593 52.6492 36.564 47.6404 41.4489 44.3346C46.3337 41.0289 52.2141 39.8219 58.0067 40.9358C63.7992 42.0498 68.8107 45.3514 72.1177 50.2324C75.4247 55.1136 76.6316 60.9899 75.5159 66.7789Z" fill="#50BFA5"/>
</g>
<mask id="mask2_441_523" style="mask-type:luminance" maskUnits="userSpaceOnUse" x="0" y="0" width="266" height="187">
<path d="M0 0H266V187H0V0Z" fill="white"/>
</mask>
<g mask="url(#mask2_441_523)">
<path d="M173.127 58.8724L173.455 53.6342C173.342 53.3844 173.083 53.3484 172.444 53.253C171.299 53.0825 170.155 52.9118 169.018 52.7014C168.839 52.6684 168.617 52.4535 168.554 52.2739C168.178 51.2062 167.867 50.1154 167.481 49.0519C167.361 48.7222 167.352 48.5343 167.612 48.2717C168.651 47.2218 169.661 46.1429 170.67 45.0864C170.073 43.8787 167.9 41.3585 166.91 40.7431C165.771 41.5698 164.594 42.3968 163.452 43.2688C163.096 43.5401 162.885 43.5532 162.48 43.3141C161.539 42.7595 160.546 42.2889 159.548 41.8409C159.144 41.6596 158.914 41.4971 158.915 41.0001C158.917 39.7119 158.84 38.4238 158.821 37.1351C158.815 36.7888 158.704 36.5974 158.355 36.5727C156.713 36.4566 155.07 36.3427 153.428 36.2271C153.024 36.1987 153.039 36.5217 152.997 36.7653C152.784 37.998 152.564 39.2303 152.392 40.4691C152.327 40.9342 152.14 41.1261 151.68 41.2489C150.461 41.5741 149.264 41.9788 147.966 42.3805C146.908 41.3779 145.739 40.2709 144.538 39.1331C142.897 40.1374 141.502 41.3933 140.257 42.9138C141.196 44.2165 142.135 45.5198 142.963 46.6683C142.323 48.0312 141.703 49.2804 141.158 50.5614C141 50.9322 140.83 51.0269 140.464 51.0318C139.194 51.0487 137.924 51.1053 136.653 51.131C136.379 51.1366 136.184 51.1712 136.117 51.4883C135.778 53.0904 135.579 54.6994 135.731 56.343C135.765 56.7094 135.925 56.8197 136.245 56.8721C137.537 57.0833 138.824 57.3191 140.116 57.5248C140.429 57.5747 140.577 57.6677 140.684 58.01C141.057 59.1973 141.481 60.37 141.935 61.5292C142.051 61.8253 141.981 61.9673 141.799 62.1598C140.782 63.2321 139.773 64.3118 138.735 65.4167C139.769 67.0211 140.944 68.4598 142.433 69.6874C143.763 68.7307 145.083 67.7801 146.347 66.8705C147.756 67.5731 149.12 68.2536 150.579 68.9815C150.616 70.1122 150.648 71.4154 150.702 72.7175C150.747 73.7862 150.569 73.6858 151.698 73.877C151.806 73.8952 151.907 73.9526 152.011 73.9918C152.995 74.0536 153.98 74.1154 154.965 74.1772C155.185 74.1513 155.409 74.0897 155.626 74.1065C156.192 74.1503 156.46 73.9614 156.538 73.3487C156.7 72.0719 156.943 70.8048 157.182 69.5393C157.214 69.3736 157.396 69.166 157.556 69.1065C158.6 68.7189 159.681 68.4209 160.701 67.9803C161.2 67.7647 161.453 67.8559 161.805 68.2019C162.804 69.1832 163.843 70.1234 164.969 71.1759C166.416 69.9246 167.828 68.7041 169.255 67.4697C169.051 67.1753 168.937 67.004 168.816 66.837C168.074 65.8067 167.341 64.7694 166.58 63.7528C166.364 63.464 166.393 63.2667 166.552 62.9535C167.099 61.8778 167.576 60.7671 168.115 59.6874C168.198 59.52 168.463 59.3543 168.653 59.3433C169.693 59.2834 170.736 59.2809 171.778 59.2417C172.621 59.2099 172.933 59.1952 173.127 58.8724ZM163.072 55.7427C162.779 60.4249 158.744 63.9821 154.06 63.6881C149.375 63.3941 145.815 59.3599 146.108 54.6778C146.401 49.9956 150.436 46.4384 155.12 46.7325C159.804 47.0265 163.364 51.0605 163.072 55.7427Z" fill="#F47458"/>
</g>
<mask id="mask3_441_523" style="mask-type:luminance" maskUnits="userSpaceOnUse" x="0" y="0" width="266" height="187">
<path d="M0 0H266V187H0V0Z" fill="white"/>
</mask>
<g mask="url(#mask3_441_523)">
<path d="M222.784 25.6679C208.411 22.8698 194.442 32.2793 191.644 46.6436C188.847 61.0078 198.263 74.9704 212.636 77.7687C227.008 80.567 240.977 71.1573 243.775 56.7932C246.573 42.4289 237.156 28.4662 222.784 25.6679ZM222.386 32.256L222.386 32.2561C233.141 34.8391 239.766 45.6466 237.183 56.3954C234.6 67.1441 223.788 73.7637 213.033 71.1806C202.278 68.5976 195.653 57.7901 198.236 47.0413C200.819 36.2926 211.631 29.673 222.386 32.256Z" fill="#F7CC7F"/>
<path d="M221.701 7.30898C221.075 7.46956 220.887 8.05479 220.406 9.5C219.546 12.0852 218.685 14.6716 217.736 17.2242C217.586 17.6259 216.997 18.0525 216.554 18.1261C213.922 18.5638 211.263 18.8425 208.636 19.3067C207.822 19.4505 207.382 19.3953 206.878 18.6854C204.861 15.8476 202.765 13.066 200.721 10.2945C197.674 11.1885 190.94 15.2048 189.109 17.2518C190.567 20.2313 192.01 23.2979 193.571 26.3033C194.057 27.2386 194.002 27.7336 193.283 28.5768C191.613 30.5326 190.117 32.6469 188.672 34.779C188.087 35.6423 187.617 36.1113 186.463 35.9074C183.472 35.3789 180.449 35.0318 177.448 34.5538C176.642 34.4253 176.152 34.605 175.954 35.4048C175.018 39.1679 174.087 42.9322 173.152 46.6956C172.923 47.6207 173.678 47.7185 174.227 47.9154C177.004 48.9112 179.776 49.9226 182.584 50.8245C183.638 51.1632 184.007 51.6761 184.106 52.7943C184.367 55.7532 184.821 58.6951 185.227 61.8704C182.469 63.9179 179.425 66.1785 176.295 68.5022C177.962 72.7178 180.313 76.4666 183.339 79.9717C186.745 78.3234 190.153 76.6747 193.156 75.2217C196.062 77.2592 198.711 79.2058 201.465 80.9922C202.262 81.5093 202.413 81.9413 202.276 82.7927C201.8 85.7471 201.416 88.7164 200.961 91.6743C200.862 92.314 200.864 92.7789 201.573 93.0635C205.156 94.5018 208.812 95.6192 212.691 95.9345C213.556 96.0046 213.877 95.6778 214.129 94.9549C215.142 92.0452 216.212 89.1548 217.214 86.241C217.457 85.5352 217.733 85.2298 218.571 85.1195C221.48 84.7373 224.376 84.229 227.252 83.648C227.987 83.4996 228.288 83.7186 228.661 84.2202C230.739 87.0153 232.837 89.7952 234.982 92.6519C239.127 90.9069 242.945 88.7642 246.4 85.8088C244.718 82.3358 243.046 78.8852 241.446 75.5833C243.649 72.6004 245.782 69.7123 248.065 66.622C250.706 66.9974 253.745 67.452 256.791 67.8556C259.291 68.1867 258.986 68.5593 259.888 66.017C259.974 65.7745 260.148 65.5631 260.282 65.3373C260.824 63.0781 261.367 60.8191 261.91 58.5602C261.939 58.0375 261.887 57.4941 262.014 56.9965C262.345 55.7021 262.016 55.0025 260.624 54.5728C257.725 53.6775 254.88 52.6 252.039 51.5291C251.667 51.3889 251.258 50.8823 251.185 50.4866C250.709 47.906 250.455 45.2771 249.846 42.7314C249.547 41.4857 249.861 40.9369 250.808 40.2606C253.492 38.3423 256.097 36.3136 258.998 34.1289C256.679 30.2627 254.417 26.4913 252.129 22.6775C251.363 23.0305 250.919 23.2265 250.482 23.438C247.788 24.7419 245.082 26.0218 242.412 27.3736C241.654 27.7574 241.207 27.6089 240.545 27.1128C238.268 25.4079 235.882 23.8494 233.593 22.1597C233.238 21.8976 232.961 21.2161 233.012 20.771C233.295 18.3334 233.713 15.9118 234.044 13.4794C234.312 11.5112 234.405 10.7794 233.734 10.1989L221.701 7.30898ZM222.963 24.745C230.172 26.1486 236.403 30.2739 240.509 36.3609C244.614 42.4479 246.102 49.7682 244.699 56.973C243.295 64.1779 239.169 70.405 233.079 74.5072C226.989 78.6093 219.665 80.0955 212.456 78.6918C205.247 77.2883 199.016 73.163 194.911 67.0759C190.805 60.9888 189.317 53.6686 190.721 46.4637C192.124 39.259 196.251 33.0319 202.34 28.9297C208.43 24.8275 215.754 23.3415 222.963 24.745Z" fill="#F7CC7F"/>
</g>
<mask id="mask4_441_523" style="mask-type:luminance" maskUnits="userSpaceOnUse" x="0" y="0" width="266" height="187">
<path d="M0 0H266V187H0V0Z" fill="white"/>
</mask>
<g mask="url(#mask4_441_523)">
<mask id="mask5_441_523" style="mask-type:luminance" maskUnits="userSpaceOnUse" x="13" y="14" width="246" height="163">
<path d="M258.234 14.96H13.4731V176.528H258.234V14.96Z" fill="white"/>
</mask>
<g mask="url(#mask5_441_523)">
<path d="M144.475 52.9282H127.963C126.273 52.9282 124.903 54.2972 124.903 55.986V61.3924C124.903 63.0812 126.273 64.4502 127.963 64.4502H144.475C146.165 64.4502 147.535 63.0812 147.535 61.3924V55.986C147.535 54.2972 146.165 52.9282 144.475 52.9282Z" fill="#5184CE"/>
<path d="M122.601 166.506L105.112 174.562V176.346H167.395V174.562L149.748 166.506H122.601Z" fill="#466EB6"/>
<path d="M149.759 166.521H122.601V131.979H149.759V166.521Z" fill="#466EB6"/>
<path d="M218.361 142.815V64.9228C218.361 61.2219 215.359 58.2217 211.656 58.2217H60.5284C56.825 58.2217 53.8228 61.2219 53.8228 64.9228V142.815H218.361Z" fill="#466EB6"/>
<path d="M149.749 162.453H122.601V166.506H149.749V162.453Z" fill="#184655"/>
<path d="M53.8228 142.815V155.297C53.8228 157.893 55.5401 159.998 57.6585 159.998H214.526C216.644 159.998 218.361 157.893 218.361 155.297V142.815H53.8228Z" fill="#5184CE"/>
<path d="M137.879 55.9882C137.879 56.8313 137.195 57.5148 136.352 57.5148C135.508 57.5148 134.824 56.8313 134.824 55.9882C134.824 55.1452 135.508 54.4617 136.352 54.4617C137.195 54.4617 137.879 55.1452 137.879 55.9882Z" fill="#184655"/>
<path d="M214.51 139.432V65.1309C214.51 63.1832 212.873 61.6042 210.854 61.6042H61.3304C59.3112 61.6042 57.6744 63.1832 57.6744 65.1309V139.432H214.51Z" fill="#CCE6FF"/>
<path d="M105.113 176.346H167.395V174.561H105.113V176.346ZM0 0H266V187H0V0ZM0 187H266V0H0V187Z" fill="#184655"/>
<path d="M204.772 133.43H204.295V130.539H204.772V133.43Z" fill="#466EB6"/>
<path d="M197.013 133.437H193.796V108.552H197.013V133.437Z" fill="#466EB6"/>
<path d="M189.57 133.798H183.613V101.773H189.57V133.798Z" fill="#466EB6"/>
<path d="M180.613 133.79H174.602V95.9346H180.613V133.79Z" fill="#466EB6"/>
<path d="M170.427 133.645H166.683V117.06H170.427V133.645Z" fill="#466EB6"/>
<path d="M195.268 133.887H195.746V131.047H195.268V133.887ZM181.004 123.964H200.728V137.83H181.004V123.964ZM181.004 137.83H200.728V123.964H181.004V137.83Z" fill="#9BC1F9"/>
<path d="M188.214 133.709H184.997V120.4H188.214V133.709Z" fill="#9BC1F9"/>
<path d="M180.598 133.785H174.641V104.916H180.598V133.785Z" fill="#9BC1F9"/>
<path d="M171.639 133.786H165.628V113.292H171.639V133.786Z" fill="#9BC1F9"/>
<path d="M158.827 133.334H64.5617V67.6023H158.827V133.334Z" fill="#E9FFFF"/>
<path d="M158.827 75.2982H64.5617V67.6021H158.827V75.2982Z" fill="#5184CE"/>
<path d="M154.821 89.6274H67.8142V78.4675H154.821V89.6274Z" fill="#9BC1F9"/>
<path d="M95.3635 125.806H67.8142V92.7966H95.3635V125.806Z" fill="#5184CE"/>
<path d="M154.821 95.6572H98.8203V92.7966H154.821V95.6572Z" fill="#9BC1F9"/>
<path d="M154.821 101.687H98.8203V98.8267H154.821V101.687Z" fill="#9BC1F9"/>
<path d="M130.669 119.777H98.7908V116.916H130.669V119.777Z" fill="#9BC1F9"/>
<path d="M166.379 81.1589H179.951V67.5958H166.379V81.1589ZM0 0H266V187H0V0ZM0 187H266V0H0V187Z" fill="#9BC1F9"/>
<path d="M195.568 68.4638H182.329V67.5422H195.568V68.4638Z" fill="#9BC1F9"/>
<path d="M200.221 73.3454H182.352V71.5024H200.221V73.3454Z" fill="#9BC1F9"/>
<path d="M194.156 76.3243H182.264V75.4028H194.156V76.3243Z" fill="#9BC1F9"/>
</g>
</g>
<mask id="mask6_441_523" style="mask-type:luminance" maskUnits="userSpaceOnUse" x="10" y="82" width="90" height="114">
<path d="M10.2162 82.6472H99.3818V195.876H10.2162V82.6472Z" fill="white"/>
</mask>
<g mask="url(#mask6_441_523)">
<path d="M28.4563 104.3L80.761 104.206C81.5465 104.205 82.1845 104.84 82.1859 105.624L82.3099 174.5C82.3114 175.285 81.6758 175.922 80.8903 175.924L28.5854 176.018C27.7999 176.019 27.1621 175.384 27.1607 174.599L27.0366 105.724C27.0352 104.939 27.6707 104.301 28.4563 104.3Z" fill="#F7CC7F"/>
<path d="M29.9082 106.298L79.3163 106.209L79.4376 173.529L30.0296 173.618L29.9082 106.298Z" fill="white"/>
<path d="M65.3183 103.282C65.3177 102.98 65.0717 102.735 64.7687 102.735L44.0232 102.773C43.7203 102.773 43.4751 103.019 43.4756 103.322L43.4795 105.477L65.3222 105.437L65.3183 103.282Z" fill="#13375B"/>
<path d="M54.3913 100.134C52.5843 100.137 51.1222 101.604 51.1253 103.41C51.1286 105.215 52.5961 106.676 54.403 106.673C56.21 106.67 57.6721 105.204 57.669 103.398C57.6657 101.592 56.1982 100.131 54.3913 100.134ZM54.4009 105.501C53.2421 105.503 52.301 104.566 52.2989 103.407C52.2968 102.249 53.2345 101.309 54.3934 101.307C55.5522 101.305 56.4932 102.242 56.4954 103.4C56.4975 104.558 55.5598 105.499 54.4009 105.501Z" fill="#13375B"/>
<path d="M65.3183 103.283L65.3222 105.437L43.4795 105.477C43.4822 106.969 44.6954 108.178 46.1892 108.175L62.6222 108.145C64.1161 108.143 65.3249 106.93 65.3222 105.437L65.3183 103.283Z" fill="#355389"/>
<path d="M33.6777 120.271L63.7368 120.217L63.735 119.207L33.6758 119.261L33.6777 120.271Z" fill="#9BC1F9"/>
<path d="M33.6828 123.132L63.7421 123.078L63.7403 122.068L33.681 122.122L33.6828 123.132Z" fill="#9BC1F9"/>
<path d="M33.688 125.993L63.7469 125.939L63.7452 124.929L33.6861 124.983L33.688 125.993Z" fill="#9BC1F9"/>
<path d="M33.6777 132.239L63.7369 132.185L63.7351 131.175L33.6758 131.229L33.6777 132.239Z" fill="#9BC1F9"/>
<path d="M33.6828 135.1L63.7421 135.046L63.7403 134.036L33.681 134.09L33.6828 135.1Z" fill="#9BC1F9"/>
<path d="M33.688 137.961L63.7472 137.907L63.7454 136.897L33.6861 136.951L33.688 137.961Z" fill="#9BC1F9"/>
<path d="M33.6777 143.74L63.7369 143.686L63.7351 142.676L33.6758 142.73L33.6777 143.74Z" fill="#9BC1F9"/>
<path d="M33.6828 146.601L63.7421 146.547L63.7403 145.536L33.681 145.591L33.6828 146.601Z" fill="#9BC1F9"/>
<path d="M33.688 149.462L63.7472 149.408L63.7454 148.397L33.6861 148.451L33.688 149.462Z" fill="#9BC1F9"/>
<path d="M33.6777 155.24L63.7369 155.186L63.7351 154.176L33.6758 154.23L33.6777 155.24Z" fill="#9BC1F9"/>
<path d="M33.6828 158.101L63.7421 158.047L63.7403 157.037L33.681 157.091L33.6828 158.101Z" fill="#9BC1F9"/>
<path d="M33.688 160.962L63.7472 160.908L63.7454 159.898L33.6861 159.952L33.688 160.962Z" fill="#9BC1F9"/>
<path d="M33.7013 168.359L68.3792 168.296L68.3774 167.286L33.6995 167.348L33.7013 168.359Z" fill="#9BC1F9"/>
<path d="M33.7057 170.806L75.2221 170.732L75.2204 169.721L33.7038 169.796L33.7057 170.806Z" fill="#9BC1F9"/>
<path d="M73.5116 154.268H66.7283L66.8219 161H73.4648L73.5116 154.268Z" stroke="#184655" stroke-width="4"/>
<path d="M68.3189 155.951L69.9562 158.849L72.3421 153.146" stroke="#F47458" stroke-width="11"/>
<path d="M73.5116 142.487H66.7283L66.8219 149.219H73.4648L73.5116 142.487Z" stroke="#184655" stroke-width="4"/>
<path d="M71.7105 143.469L70.003 146.18L68.3423 148.494" stroke="#F47458" stroke-width="11"/>
<path d="M68.3423 143.305L70.003 146.18L71.4064 148.611" stroke="#F47458" stroke-width="11"/>
<path d="M73.5116 130.893H66.7283L66.8219 137.625H73.4648L73.5116 130.893Z" stroke="#184655" stroke-width="4"/>
<path d="M68.3189 132.576L69.9562 135.474L72.3421 129.771" stroke="#F47458" stroke-width="11"/>
<path d="M73.5116 119.206H66.7283L66.8219 125.938H73.4648L73.5116 119.206Z" stroke="#184655" stroke-width="4"/>
<path d="M68.3189 120.888L69.9562 123.787L72.3421 118.083" stroke="#F47458" stroke-width="11"/>
<path d="M44.1187 115.955V112.592H42.7774V112.298H45.8826V112.592H44.5413V115.955H44.1187Z" fill="#184655"/>
<path d="M49.3094 115.661V115.955H46.6176V112.298H49.2143V112.592H47.0371V113.873H48.6133V114.168H47.0371V115.661H49.3094Z" fill="#184655"/>
<path d="M49.7382 115.08L50.1026 114.959C50.2251 115.219 50.3817 115.412 50.5726 115.536C50.7635 115.661 50.9978 115.723 51.2754 115.723C51.5612 115.723 51.7915 115.658 51.966 115.528C52.1406 115.397 52.2279 115.226 52.2279 115.013C52.2279 114.844 52.1707 114.704 52.0564 114.594C51.9419 114.485 51.7481 114.385 51.4745 114.294C51.3255 114.246 51.1279 114.188 50.882 114.121C50.6359 114.053 50.4782 114.003 50.4087 113.97C50.1903 113.868 50.0351 113.759 49.9433 113.643C49.8515 113.528 49.8055 113.385 49.8055 113.216C49.8055 112.912 49.9208 112.674 50.1515 112.5C50.3822 112.326 50.6997 112.239 51.104 112.239C51.4633 112.239 51.7598 112.31 51.9936 112.453C52.2273 112.595 52.4055 112.814 52.5279 113.109L52.1728 113.201C52.0604 112.973 51.9159 112.805 51.7394 112.696C51.5627 112.588 51.3448 112.533 51.0856 112.533C50.8344 112.533 50.6308 112.592 50.4747 112.709C50.3184 112.826 50.2404 112.978 50.2404 113.166C50.2404 113.308 50.2909 113.427 50.392 113.525C50.493 113.622 50.6497 113.701 50.862 113.762C50.9436 113.787 51.0621 113.821 51.2173 113.863C51.6623 113.986 51.9491 114.082 52.0778 114.153C52.2839 114.262 52.4335 114.381 52.5264 114.51C52.6192 114.64 52.6657 114.793 52.6657 114.969C52.6657 115.289 52.5407 115.544 52.2907 115.733C52.0405 115.923 51.7021 116.017 51.2754 116.017C50.8916 116.017 50.5757 115.942 50.3277 115.79C50.0796 115.638 49.8831 115.402 49.7382 115.08Z" fill="#184655"/>
<path d="M54.4021 115.955V112.592H53.0609V112.298H56.1661V112.592H54.8247V115.955H54.4021Z" fill="#184655"/>
<path d="M56.9684 112.298H57.3879V115.955H56.9684V112.298Z" fill="#184655"/>
<path d="M59.0753 112.563V115.955H58.668V112.298H59.3509L61.5222 115.384V112.298H61.9294V115.955H61.4823L59.0753 112.563Z" fill="#184655"/>
<path d="M65.7726 115.545C65.6215 115.707 65.4429 115.828 65.2367 115.907C65.0304 115.987 64.7906 116.027 64.517 116.027C63.9556 116.027 63.528 115.865 63.2339 115.541C62.9399 115.217 62.7929 114.748 62.7929 114.133C62.7929 113.525 62.943 113.055 63.2431 112.725C63.5432 112.394 63.9679 112.229 64.517 112.229C64.9233 112.229 65.2479 112.316 65.4908 112.491C65.7338 112.666 65.9135 112.941 66.0298 113.317L65.6348 113.384C65.5368 113.089 65.3964 112.871 65.2137 112.731C65.0311 112.591 64.7967 112.521 64.5109 112.521C64.1025 112.521 63.7871 112.657 63.5646 112.93C63.3422 113.203 63.2308 113.59 63.2308 114.091C63.2308 114.632 63.3437 115.04 63.5692 115.315C63.7948 115.59 64.1301 115.728 64.5752 115.728C64.91 115.728 65.1795 115.65 65.3837 115.494C65.5879 115.339 65.6899 115.133 65.6899 114.877V114.487H64.563V114.212H66.1432V115.956H65.7726V115.545Z" fill="#184655"/>
<path d="M29.958 152.772C29.958 152.772 35.3379 150.435 40.016 153.006C44.6942 155.577 46.7058 158.569 47.1736 163.525C47.6414 168.48 44.6006 171.612 42.5422 173.669" stroke="#9BC1F9" stroke-width="18"/>
<path d="M30.0515 156.372C30.0515 156.372 33.373 154.221 36.9752 155.156C40.5774 156.091 43.8053 158.943 43.9925 163.244C44.1796 167.545 42.2615 169.789 40.7177 170.958C39.1739 172.127 35.8057 174.558 30.0515 171.566" stroke="#9BC1F9" stroke-width="9"/>
</g>
<mask id="mask7_441_523" style="mask-type:luminance" maskUnits="userSpaceOnUse" x="62" y="-11" width="113" height="122">
<path d="M62.3646 -10.6309H174.64V110.919H62.3646V-10.6309Z" fill="white"/>
</mask>
<g mask="url(#mask7_441_523)">
<path d="M91.3053 32.4471C92.4721 32.0097 93.1002 36.1656 94.7439 40.1541C94.9714 40.6068 94.5503 40.3497 95.203 42.4258C95.4457 43.1979 95.1117 43.5521 94.5386 45.1516C94.3355 45.7184 93.379 47.0118 93.4048 47.1414C93.5887 48.0641 93.4276 48.7179 93.1374 49.5146C92.9555 50.0141 92.9102 47.8358 92.9778 47.9065C93.2063 48.1459 92.4686 49.8399 92.1993 49.899C91.9245 49.9593 92.438 48.0496 92.438 48.0496L92.3998 48.0799C92.071 49.1387 91.7902 50.0737 91.6092 50.0202C91.2743 49.9213 91.6967 48.6478 91.9926 47.9864C91.4628 48.8348 91.1354 49.9334 90.8462 49.8368C90.6208 49.7615 91.0183 48.5543 91.4474 47.9263C91.3912 47.9317 90.9623 48.8611 90.7168 48.9163C90.5196 48.9607 90.8078 47.9699 91.5576 47.3682C91.7017 47.2525 92.0656 46.9251 92.1945 46.6303C92.3614 46.2486 92.6175 45.2972 92.6917 44.9582C92.8818 44.0893 93.1029 43.5161 92.9729 43.0888C92.7726 42.4301 92.4446 42.0209 92.2272 41.7005C91.0417 39.9523 91.6031 40.7938 90.256 38.0435C89.384 36.2634 90.3852 32.792 91.3053 32.4471Z" fill="#F7A491"/>
<path d="M91.2142 31.605C91.4029 31.6127 91.9198 31.7858 92.6757 33.2134C93.6411 35.0365 95.473 40.4503 95.473 40.4503L90.9809 42.0643L89.6913 38.2501L89.4084 32.1119C89.4084 32.1119 91.1619 31.6028 91.2142 31.605Z" fill="#A34B3D"/>
<path d="M85.6472 30.8113C86.8515 30.8129 89.8312 31.164 91.2142 31.6056C91.2142 31.6056 92.23 40.3318 90.2994 46.9627C89.8672 48.447 90.6569 53.1157 90.6569 53.1157L78.1781 52.9513C78.1781 52.9513 79.6565 41.6643 79.0996 39.8411C78.5426 38.0181 78.5292 31.6643 78.5292 31.6643C78.5292 31.6643 78.6147 31.6509 81.3329 31.1815C82.6008 30.9624 84.3615 30.8096 85.6472 30.8113Z" fill="#B75742"/>
<path d="M89.249 50.4876C89.249 50.4876 97.863 50.0096 99.7866 51.1738C101.71 52.338 98.42 58.0517 98.42 58.0517C98.42 58.0517 92.426 57.7756 80.6854 58.4527C77.9052 58.613 77.6656 51.2084 78.1855 50.5957C78.7054 49.983 89.249 50.4876 89.249 50.4876Z" fill="#E0973F"/>
<path d="M83.7523 69.4628C83.7523 69.4628 83.9504 72.6529 84.4362 73.5468C84.9221 74.4408 84.3513 75.9263 84.3196 76.1313C84.2878 76.3364 83.2392 76.6047 81.5877 76.388C79.9363 76.1713 79.9723 75.7899 80.1209 75.1762C80.2696 74.5624 81.1702 73.7905 81.238 73.2041C81.3058 72.6178 80.7968 70.4884 80.7968 70.4884L83.7523 69.4628Z" fill="#F7A491"/>
<path d="M81.375 76.6299C79.6745 76.4068 79.9058 75.5747 80.0588 74.9426C80.1546 74.5469 80.6553 74.0898 80.9577 73.6532C81.1071 73.7783 81.3498 73.9986 82.0848 74.2352C82.8482 74.4809 83.9132 74.0574 84.5918 73.7925C84.8093 74.6887 84.7925 75.8245 84.7659 75.9961C84.7332 76.2073 83.0756 76.853 81.375 76.6299Z" fill="#DD513A"/>
<path d="M82.8025 56.7694C83.0828 59.3795 84.4691 72.3731 84.4691 72.3731L80.5047 72.7665C80.5047 72.7665 76.0584 55.7425 76.3709 53.1628C76.6835 50.583 78.5081 50.4099 78.5081 50.4099C78.5081 50.4099 82.0606 49.8599 82.8025 56.7694Z" fill="#F7CC7F"/>
<path d="M78.395 32.6345C79.5593 32.1904 80.1913 42.6925 80.3738 47.0157C82.441 47.2024 86.0411 46.9843 86.9374 46.9119C87.3589 46.8778 88.3293 46.5163 88.7483 46.4589C89.1778 46.4002 89.5673 46.3687 89.7789 46.4041C89.8565 46.4172 92.0152 47.2848 92.2005 47.4767C92.4304 47.7148 93.0516 48.3149 92.9489 48.5767C92.8462 48.8384 91.7566 47.8561 91.7566 47.8561L91.2254 47.5622C91.8885 48.2021 93.1509 49.0424 92.9715 49.3522C92.7966 49.6542 91.6573 48.8006 90.8454 48.219C91.5425 48.8409 92.4106 49.956 92.2131 50.1317C92.0356 50.2897 91.0481 48.9986 89.9986 48.6313C89.6097 48.4951 89.2251 48.8805 88.9201 48.9287C88.6959 48.964 88.35 49.0384 88.1295 48.9773L86.9938 48.6625C86.6077 48.6996 86.5993 48.9281 86.2097 49.0133C85.7574 49.1122 85.0151 49.218 84.4392 49.362C81.1231 50.1922 80.0175 50.5751 79.0008 50.5804C75.921 50.5964 75.6437 33.6842 78.395 32.6345Z" fill="#F7A491"/>
<path d="M76.2382 42.5102C75.9939 38.0823 75.9941 32.623 78.4732 31.6771C79.4514 31.3039 81.1924 33.5035 80.9344 42.5728C79.6087 42.6899 77.662 42.7894 76.2382 42.5102Z" fill="#A34B3D"/>
<path d="M95.8924 72.3672C95.8924 72.3672 95.3074 73.3668 95.7448 74.2178C96.1823 75.069 98.522 76.3448 98.7611 76.8062C99.0003 77.2678 98.8996 77.5906 98.8996 77.5906L91.9243 75.7782L92.4901 73.6772L93.1651 72.2293L95.8924 72.3672Z" fill="#F7A491"/>
<path d="M96.0995 74.6736C96.0995 74.6736 94.1273 74.9868 93.3556 74.3541C92.5842 73.7213 92.6381 73.6079 92.3487 73.7108C92.1627 73.7768 91.8695 74.6126 91.6837 75.2012C91.5847 75.5144 91.7694 75.8467 92.0874 75.93L99.3505 77.8315C99.9028 77.9455 100.274 77.6055 99.9075 77.1564C99.6563 76.8485 99.3394 76.6079 99.165 76.4463C98.6293 75.95 96.0995 74.6736 96.0995 74.6736Z" fill="#DD513A"/>
<path d="M95.4845 52.4875C96.0576 51.3244 97.3452 49.8175 99.5603 50.7667C101.673 51.6721 102.213 53.8322 101.512 56.0268C100.811 58.2214 96.2156 71.116 96.0368 72.8952L92.5124 72.8695C92.5124 72.8695 93.2964 62.6196 93.4883 60.1421C93.6728 57.7583 94.4925 54.5006 95.4845 52.4875Z" fill="#F7CC7F"/>
<path d="M101.204 40.594H89.4217C89.11 40.594 88.8292 40.7829 88.7109 41.0721L85.0831 49.9441H78.5878C78.4061 49.9441 78.2589 50.0916 78.2589 50.2736C78.2589 50.4556 78.4061 50.6032 78.5878 50.6032H97.0743C97.5825 50.6032 98.0434 50.3041 98.2516 49.8391L101.904 41.6798C102.133 41.1701 101.761 40.594 101.204 40.594Z" fill="#184655"/>
<path d="M94.8603 45.7603C94.7807 46.1588 94.434 46.4253 94.086 46.3555C93.7379 46.2858 93.5204 45.9062 93.5999 45.5076C93.6795 45.1092 94.0262 44.8427 94.3742 44.9125C94.7222 44.9822 94.9399 45.3618 94.8603 45.7603Z" fill="white"/>
<path d="M86.2772 19.6638C85.9059 19.6141 85.537 19.5483 85.1746 19.4529C84.7649 19.345 84.2385 19.2278 83.9227 19.2399C83.258 19.2657 82.1623 19.5471 81.6793 20.3299C81.0775 21.305 79.5904 20.8904 80.7067 25.1693C81.9703 30.0126 84.5929 28.9451 84.6429 28.8492C84.6929 28.7535 86.4646 25.2403 86.4646 25.2403C86.4646 25.2403 87.6441 26.8888 87.6312 26.8225C87.6188 26.7584 90.7378 20.2606 86.2772 19.6638Z" fill="#0E2E35"/>
<path d="M85.9393 28.9724L86.5156 30.6786C86.5156 30.6786 87.534 33.1002 86.9502 33.7186C86.3665 34.3369 83.4655 31.1962 83.4655 31.1962L82.8348 26.7118L85.9393 28.9724Z" fill="#F7A491"/>
<path d="M83.0392 28.1651C83.8943 29.5705 85.4103 30.2422 86.4282 30.4192L85.9394 28.9726L82.8345 26.7117L83.0392 28.1651Z" fill="#F47458"/>
<path d="M84.3235 21.4095C85.7161 20.8984 87.2306 21.804 87.4747 23.2497C87.5809 23.8782 87.6816 24.6691 87.7154 25.5352C87.7964 27.6183 86.7628 29.667 85.8192 29.685C84.8755 29.7032 82.2394 28.4043 82.0836 25.4478C81.9873 23.6225 82.8621 21.9459 84.3235 21.4095Z" fill="#F7A491"/>
<path d="M82.783 25.6691C82.7925 26.1288 82.4963 26.5073 82.1214 26.5145C81.7466 26.5217 81.435 26.155 81.4255 25.6953C81.4159 25.2356 81.712 24.857 82.087 24.8498C82.4618 24.8425 82.7734 25.2094 82.783 25.6691Z" fill="#F7A491"/>
<path d="M82.0876 24.8501C82.0876 24.8501 83.2446 24.9099 83.5161 24.1207C83.7875 23.3315 84.9542 21.5159 86.9393 21.7893C88.9245 22.0627 85.0007 20.5637 84.8518 20.5926C84.7029 20.6215 82.9133 20.9561 82.9133 20.9561C82.9133 20.9561 81.756 22.3566 81.7306 22.4907C81.7052 22.6249 81.5721 24.059 81.5721 24.059L82.0876 24.8501Z" fill="#0E2E35"/>
<path d="M84.6822 27.4172L86.7651 27.4112C86.7651 27.4112 86.7207 28.2046 85.8048 28.2338C84.6882 28.2695 84.6822 27.4172 84.6822 27.4172Z" fill="white"/>
</g>
<mask id="mask8_441_523" style="mask-type:luminance" maskUnits="userSpaceOnUse" x="65" y="67" width="114" height="131">
<path d="M65.9366 67.0303H178.212V197.93H65.9366V67.0303Z" fill="white"/>
</mask>
<g mask="url(#mask8_441_523)">
<path d="M110.635 166.859C110.635 166.859 109.944 169.731 109.47 170.583C109.216 171.039 108.358 171.869 108.453 172.407C108.548 172.945 108.789 173.15 108.789 173.15L115.082 175.306C115.425 175.424 115.269 175.127 115.058 174.831C114.713 174.347 114.418 174.006 113.195 172.828C113.116 172.751 112.842 172.418 112.743 172.302C112.49 172.006 112.273 171.598 112.099 171.204C111.81 170.548 112.573 168.07 112.573 168.07L110.635 166.859Z" fill="#F7A491"/>
<path d="M112.742 172.3C110.929 172.189 109.787 171.494 109.187 170.989C108.843 171.439 108.399 172 108.405 172.409C108.412 172.909 108.598 173.082 108.789 173.15C110.304 173.686 114.356 175.063 115.517 175.456C115.679 175.511 115.831 175.349 115.767 175.189C115.591 174.749 112.842 172.417 112.742 172.3Z" fill="#F7CC7F"/>
<path d="M117.813 129.445C117.813 129.445 115.503 132.94 114.953 135.832C114.403 138.724 115.357 147.612 114.298 151.402C113.726 153.453 111.555 156.621 111.225 159.273C110.895 161.924 109.6 168.868 109.6 168.868L112.533 169.452L119.348 152.109L124.694 136.434L126.064 128.36L117.813 129.445Z" fill="#F47458"/>
<path d="M121.236 169.576C121.236 169.576 121.468 172.519 121.28 173.476C121.179 173.988 120.62 175.042 120.877 175.524C121.133 176.006 121.427 176.127 121.427 176.127L128.079 176.235C128.442 176.24 128.202 176.006 127.91 175.79C127.432 175.437 127.046 175.203 125.518 174.46C125.419 174.412 125.056 174.18 124.925 174.1C124.593 173.896 124.26 173.576 123.973 173.255C123.496 172.721 123.454 170.128 123.454 170.128L121.236 169.576Z" fill="#F7A491"/>
<path d="M126.436 130.45C126.436 130.45 127.274 135.229 126.724 138.362C126.174 141.496 123.534 170.537 123.534 170.537L120.6 170.703C120.6 170.703 119.985 158.572 120.095 156.885C120.205 155.198 121.075 152.375 121.075 152.375L120.783 142.58L124.486 129.713L126.436 130.45Z" fill="#E25A44"/>
<path d="M124.924 174.099C123.165 174.553 121.864 174.245 121.137 173.95C120.949 174.484 120.7 175.155 120.832 175.541C120.994 176.014 121.224 176.122 121.427 176.127C123.034 176.169 127.313 176.227 128.539 176.243C128.71 176.245 128.804 176.044 128.694 175.912C128.39 175.548 125.055 174.18 124.924 174.099Z" fill="#F7CC7F"/>
<path d="M136.966 122.195C137.089 121.935 135.796 121.58 135.755 121.3C135.713 121.019 137.446 121.177 137.532 120.943C137.693 120.513 135.646 120.654 135.707 120.451C135.768 120.248 137.871 119.999 137.686 119.621C137.501 119.243 135.532 120.107 135.5 119.86C135.469 119.613 137.404 119.221 137.425 118.69C137.436 118.406 134.204 119.779 133.865 119.588C133.526 119.398 134.4 118.148 134.138 117.922C133.876 117.696 132.742 120.31 132.537 120.387C132.332 120.463 127.896 121.803 126.387 122.026C126.322 121.764 126.354 119.461 125.747 117.3C125.168 115.24 123.947 113.317 123.894 113.082C121.42 112.471 120.577 114.996 122.096 118.663C122.552 120.271 123.577 125.474 123.986 125.712C125.233 126.439 131.792 122.976 132.876 122.363C133.962 121.75 134.516 122.043 135.223 121.887C135.93 121.731 136.844 122.456 136.966 122.195Z" fill="#F38B80"/>
<path d="M125.295 106.592C125.625 105.093 125.948 103.585 125.078 101.939C124.374 100.606 123.157 99.8393 121.749 99.6723C117.759 99.1992 117.819 100.175 114.891 104.986C112.157 109.479 106.444 103.692 102.087 100.588C97.3738 97.2308 87.6433 101.532 91.3866 108.595C93.3958 112.386 99.2451 114.528 108.469 114.374C111.83 114.318 116.838 113.985 119.152 112.854C120.422 112.229 121.99 113.115 122.321 112.738C123.858 110.991 125.082 107.557 125.295 106.592Z" fill="#0E2E35"/>
<path d="M119.014 111.323C119.014 111.323 116.999 111.552 115.794 112.862C114.589 114.172 117.742 124.703 117.961 126.37C118.181 128.037 115.866 132.652 115.866 132.652C115.866 132.652 123.734 134.215 125.779 132.865C125.779 132.865 125.959 119.978 125.74 118.787C125.521 117.596 123.694 112.752 123.256 112.276C122.818 111.799 119.014 111.323 119.014 111.323Z" fill="#F7CC7F"/>
<path d="M120.028 107.263C120.028 107.263 120.013 107.353 119.984 107.505C119.849 108.235 119.325 110.658 118.972 111.325C118.545 112.129 120.434 114.697 122.252 114.384C122.793 114.29 121.795 112.025 121.843 111.785C121.934 111.325 122.059 110.698 122.187 110.056C122.258 109.693 122.331 109.326 122.4 108.98C122.594 107.998 122.753 107.195 122.753 107.195L120.028 107.263Z" fill="#F7A491"/>
<path d="M119.427 119.869L127.864 121.103C128.118 121.14 128.293 121.375 128.256 121.629L126.609 132.877C126.572 133.13 126.337 133.306 126.083 133.269L117.646 132.035C117.392 131.998 117.217 131.763 117.254 131.509L118.901 120.261C118.938 120.007 119.173 119.832 119.427 119.869Z" fill="#184655"/>
<path d="M125.72 120.416C125.727 120.365 125.692 120.317 125.64 120.31L122.121 119.795C122.07 119.788 122.022 119.823 122.015 119.875L121.961 120.24L125.666 120.782L125.72 120.416Z" fill="#13375B"/>
<path d="M123.946 119.608C123.639 119.563 123.355 119.775 123.31 120.082C123.265 120.388 123.477 120.673 123.784 120.717C124.09 120.762 124.375 120.55 124.42 120.244C124.465 119.938 124.252 119.653 123.946 119.608ZM123.813 120.518C123.616 120.49 123.48 120.307 123.509 120.111C123.538 119.914 123.72 119.778 123.917 119.807C124.113 119.836 124.249 120.018 124.221 120.215C124.192 120.411 124.009 120.547 123.813 120.518Z" fill="#13375B"/>
<path d="M125.72 120.416L125.666 120.782L121.961 120.24C121.924 120.494 122.099 120.729 122.353 120.766L125.14 121.173C125.394 121.21 125.629 121.035 125.666 120.782L125.72 120.416Z" fill="#355389"/>
<path d="M119.984 107.505C120.013 107.353 120.028 107.263 120.028 107.263L122.753 107.196C122.753 107.196 122.594 107.999 122.4 108.98C122.332 109.324 122.259 109.689 122.188 110.05C121.767 109.988 121.328 109.784 120.887 109.4C120.407 108.98 120.092 108.476 119.902 107.938C119.935 107.766 119.963 107.618 119.984 107.505Z" fill="#F47458"/>
<path d="M121.667 100.793C121.667 100.793 120.556 100.947 119.751 101.985C118.946 103.023 118.079 106.234 120.078 107.979C122.078 109.725 124.053 107.749 124.346 105.654C124.639 103.559 124.58 100.717 121.667 100.793Z" fill="#F7A491"/>
<path d="M124.929 105.137C124.803 105.642 124.472 105.983 124.19 105.899C123.907 105.815 123.781 105.337 123.907 104.832C124.033 104.327 124.364 103.986 124.646 104.07C124.929 104.154 125.055 104.632 124.929 105.137Z" fill="#F7A491"/>
<path d="M122.901 100.802C122.901 100.802 120.29 103.798 119.063 103.939C117.836 104.08 117.675 105.702 117.675 105.702C117.675 105.702 118.113 101.964 119.328 101.243C120.543 100.522 122.901 100.802 122.901 100.802Z" fill="#0E2E35"/>
<path d="M119.464 104.666C119.564 105.208 119.363 105.706 119.016 105.777C118.668 105.848 118.306 105.466 118.206 104.924C118.106 104.382 118.307 103.884 118.654 103.813C119.002 103.742 119.364 104.124 119.464 104.666Z" fill="#F7A491"/>
<path d="M123.096 106.692L121.197 106.682C121.197 106.682 121.237 107.403 122.072 107.431C123.09 107.466 123.096 106.692 123.096 106.692Z" fill="white"/>
<path d="M113.508 122.746L116.565 123.058C116.565 123.058 116.515 125.651 116.567 125.949C116.567 125.949 121.795 127.397 123.98 127.79C123.98 127.79 124.975 127.226 125.377 127.047C125.78 126.868 126.861 126.672 127.101 126.641C127.34 126.61 127.258 126.872 127.053 126.963C126.847 127.055 126.316 127.305 126.165 127.611C126.165 127.611 126.596 127.659 126.825 127.557C127.053 127.455 127.368 127.24 127.373 127.128C127.378 127.017 127.43 126.748 127.505 126.762C127.524 126.766 127.549 126.854 127.575 126.947C127.599 127.034 127.625 127.124 127.646 127.213C127.685 127.372 127.729 127.604 127.746 127.709C127.785 127.947 127.639 128.604 127.619 128.837C127.581 129.263 127.46 129.452 127.235 129.56C126.872 129.687 126.488 129.767 125.921 129.826C124.881 129.933 123.925 129.634 123.508 129.587C123.091 129.541 116.435 128.881 116.435 128.881C116.435 128.881 113.788 128.5 113.613 128.045C113.437 127.59 113.508 122.746 113.508 122.746Z" fill="#F7A491"/>
<path d="M116.164 112.481C116.164 112.481 115.199 112.938 114.351 114.913C113.545 116.789 113.308 126.154 113.308 126.154L116.505 125.622L118.13 121.255C119.289 118.642 118.99 115.599 117.302 113.291C116.852 112.675 116.437 112.304 116.164 112.481Z" fill="#F7CC7F"/>
</g>
<mask id="mask9_441_523" style="mask-type:luminance" maskUnits="userSpaceOnUse" x="115" y="38" width="141" height="169">
<path d="M115.276 38.2417H255.621V206.542H115.276V38.2417Z" fill="white"/>
</mask>
<g mask="url(#mask9_441_523)">
<path d="M205.359 169.206C205.359 169.206 206.295 170.119 206.316 170.454C206.337 170.789 206.399 174.378 206.017 174.713C205.635 175.049 204.512 175.286 204.873 175.663C205.146 175.948 207.245 175.887 208.636 175.811C209.042 175.788 209.551 172.551 209.712 172.075C209.945 171.384 210.513 169.827 210.301 169.345C210.198 169.111 209.702 168.628 209.005 168.178C208.271 167.704 207.569 166.65 207.569 166.65L205.359 169.206Z" fill="#F48C7F"/>
<path d="M208.96 168.155C208.96 168.155 206.802 174.227 205.957 174.52C205.733 174.598 204.656 174.796 204.453 175.271C204.392 175.415 204.453 175.893 204.453 175.893H208.951C208.951 175.893 209.52 173.218 209.745 172.042C209.745 172.042 210.936 169.17 210.803 168.909C210.671 168.648 208.96 168.155 208.96 168.155Z" fill="#F47458"/>
<path d="M195.659 171.332C195.659 171.332 196.497 173.697 196.498 173.703C196.561 174.078 196.806 175.004 196.806 175.345C196.806 176.624 191.03 174.258 192.325 173.691C192.442 173.64 192.809 173.23 192.848 172.794C192.907 172.123 192.361 171.281 192.361 171.281L195.659 171.332Z" fill="#F7A491"/>
<path d="M197.135 175.767L196.473 173.679C196.473 173.679 195.084 174.266 194.389 174.168C193.695 174.07 192.339 173.679 192.339 173.679C189.566 174.591 187.295 175.033 187.709 175.767H197.135Z" fill="#F47458"/>
<path d="M187.066 128.499C186.376 129.68 186.177 131.524 186.177 131.588C186.177 138.447 184.817 151.847 185.075 153.136C185.707 156.282 192.501 172.329 192.501 172.329L196.173 171.89L192.232 152.499L193.149 144.944C193.149 144.944 196.009 132.156 195.641 129.658C195.272 127.16 189.378 124.542 187.066 128.499Z" fill="#50BFA5"/>
<path d="M198.923 131.035L199.62 135.054L201.505 151.595L208.684 167.761C208.684 167.761 207.675 170.114 206.185 170.444L194.758 153.846L187.66 132.607C187.66 132.607 185.785 128.898 190.248 127.328C194.711 125.758 198.923 131.035 198.923 131.035Z" fill="#96D9C9"/>
<path d="M184.012 122.741L178.744 118.544L178.742 118.545C178.696 118.393 178.196 116.761 178.172 116.469C178.147 116.163 177.256 115.626 176.843 115.705C176.43 115.784 177.197 116.303 177.247 116.398C177.384 116.657 176.854 116.754 176.854 116.754C176.854 116.754 175.35 116.272 175.317 115.781C175.301 115.529 174.548 115.8 175.193 116.586C174.455 115.426 174.318 116.735 174.377 116.827C174.495 117.011 176.953 118.99 177.307 119.419C177.307 119.419 183.642 126.625 184.139 126.799C185.168 127.16 186.325 126.432 186.053 125.244C185.636 123.42 184.012 122.741 184.012 122.741Z" fill="#F7A491"/>
<path d="M189.628 112.819C188.997 112.483 185.146 115.147 185.325 115.78C185.503 116.412 183.725 123.226 183.725 123.226C183.725 123.226 183.213 124.579 183.469 125.545C183.789 126.753 184.82 126.932 185.106 126.992C185.558 127.086 186.629 124.865 187.696 122.843C188.763 120.822 191.599 113.872 189.628 112.819Z" fill="#F7A491"/>
<path d="M185.134 117.187L190.226 117.707C190.226 117.707 190.46 113.535 190.46 111.545C190.46 109.131 190.247 106.864 189.986 106.719C189.121 106.239 188.04 106.727 187.384 107.629C185.112 110.748 185.134 117.187 185.134 117.187Z" fill="#B75742"/>
<path d="M187.635 111.119C187.529 111.855 185.571 131.867 185.571 131.867C194.843 136.342 199.959 132.664 199.959 132.664C199.959 132.664 199.656 118.611 200.019 116.699C200.26 115.433 200.56 107.025 199.739 106.789C198.686 106.487 197.479 106.166 196.163 106.029C195.039 105.913 190.384 106.064 189.673 106.423C189.673 106.423 188.084 108.024 187.635 111.119Z" fill="#F47458"/>
<path d="M194.923 102.161L195.521 106.097C195.521 106.097 193.338 110.784 192.035 110.378C190.942 110.037 191.615 105.89 191.615 105.89C191.615 105.89 192.211 103.663 192.032 102.548C191.853 101.434 194.923 102.161 194.923 102.161Z" fill="#F7A491"/>
<path d="M192.032 102.548C191.853 101.434 194.923 102.161 194.923 102.161L194.973 102.488C194.883 102.706 194.773 102.893 194.64 103.036C193.954 103.774 192.882 104.217 191.956 104.25C192.048 103.649 192.105 103.005 192.032 102.548Z" fill="#F47458"/>
<path d="M195.427 96.5922C195.514 96.5607 196.123 101.075 194.967 102.318C193.812 103.56 191.561 103.967 190.754 102.988C189.861 101.906 189.906 97.0537 191.702 95.7757C193.498 94.4978 195.427 96.5922 195.427 96.5922Z" fill="#F7A491"/>
<path d="M192.386 93.3607C193.774 93.6435 194.673 94.4914 195.004 94.8527C195.634 94.927 196.491 95.2752 197.375 96.739C198.463 98.5389 197.66 100.533 196.394 101.511C195.127 102.49 195.145 103.62 195.145 103.62L194.945 103.035C194.797 102.592 194.737 102.123 194.786 101.658C194.816 101.38 194.875 101.078 194.991 100.831C195.295 100.177 194.337 99.7432 194.068 99.1995C193.861 98.781 193.851 97.8233 193.525 97.1314L193.135 96.6033C193.135 96.6033 192.236 95.9044 191.357 96.1016C190.478 96.2988 190.605 92.9977 192.386 93.3607Z" fill="#0E2E35"/>
<path d="M194.127 100.003C194.118 100.554 194.368 101.005 194.686 101.01C195.005 101.016 195.27 100.574 195.279 100.023C195.288 99.4718 195.038 99.0209 194.72 99.0154C194.401 99.0101 194.136 99.4522 194.127 100.003Z" fill="#F7A491"/>
<path d="M192.251 101.276L190.51 101.186C190.51 101.186 190.516 101.849 191.28 101.911C192.212 101.986 192.251 101.276 192.251 101.276Z" fill="white"/>
<path d="M178.003 111.568C178.412 111.15 178.793 110.718 179.148 110.277L186.748 117.694C187.215 118.15 187.054 119.071 186.389 119.752C185.723 120.433 184.805 120.616 184.338 120.16L176.738 112.743C177.171 112.378 177.594 111.987 178.003 111.568Z" fill="#0E2E35"/>
<g opacity="0.521385">
<path d="M150.664 111.662C158.285 119.1 170.459 118.993 177.856 111.425C185.253 103.856 185.071 91.6905 177.45 84.2529C169.829 76.8152 157.655 76.9215 150.258 84.4904C142.861 92.0592 143.043 104.224 150.664 111.662Z" fill="#C5DDF9"/>
</g>
<path d="M148.916 113.451C157.531 121.859 171.295 121.739 179.657 113.182C188.019 104.626 187.814 90.8726 179.198 82.4642C170.582 74.0557 156.819 74.1759 148.457 82.7326C140.094 91.2893 140.3 105.042 148.916 113.451ZM150.664 111.662C143.043 104.224 142.861 92.0592 150.258 84.4904C157.655 76.9215 169.829 76.8152 177.45 84.2529C185.071 91.6906 185.253 103.856 177.856 111.425C170.459 118.993 158.285 119.1 150.664 111.662Z" fill="#184655"/>
<path d="M149.835 112.51C157.927 120.409 170.856 120.296 178.71 112.258C186.565 104.221 186.372 91.3024 178.279 83.4043C170.186 75.5061 157.258 75.619 149.403 83.6565C141.549 91.6939 141.742 104.612 149.835 112.51ZM150.664 111.662C143.043 104.224 142.861 92.0591 150.258 84.4903C157.655 76.9214 169.829 76.8151 177.45 84.2528C185.071 91.6904 185.253 103.856 177.856 111.425C170.459 118.993 158.285 119.1 150.664 111.662Z" fill="#50BFA5"/>
<path d="M210.352 144.117L211.533 142.892C212.713 141.669 212.678 139.721 211.454 138.542L189.512 117.283C188.287 116.103 186.338 116.139 185.158 117.362L183.977 118.587C182.796 119.81 182.832 121.758 184.056 122.938L205.998 144.196C207.222 145.376 209.172 145.34 210.352 144.117Z" fill="#184655"/>
<path d="M209.142 132.079C209.148 132.036 209.148 131.993 209.144 131.95C209.007 130.564 207.856 118.927 207.662 118.432C207.487 117.985 202.323 110.604 202.323 110.604L199.785 114.06L204.751 120.68C204.863 121.101 206.654 128.957 206.654 128.957C206.654 128.957 207.022 130.389 207.186 131.246C207.111 131.453 207.038 131.648 206.972 131.808C206.808 132.151 206.614 132.431 206.437 132.668C206.215 132.965 205.848 133.615 205.803 133.788C205.75 133.991 205.656 134.411 205.602 134.664C205.548 134.918 205.475 135.213 205.462 135.35C205.455 135.434 205.368 135.601 205.302 135.719C205.203 135.895 205.372 136.102 205.563 136.038C205.744 135.979 205.884 135.745 205.971 135.6C206.215 135.189 206.346 134.44 206.406 134.479C206.467 134.519 206.681 135.791 206.715 135.934C206.749 136.078 207.006 137.555 207.151 137.825C207.296 138.095 207.488 138.05 207.539 137.881C207.582 137.735 207.378 135.669 207.378 135.669C207.378 135.669 207.353 135.405 207.469 135.488C207.584 135.57 207.773 137.446 207.853 137.72C207.934 137.995 208.117 138.14 208.272 137.919C208.461 137.651 208.136 135.662 208.136 135.662C208.136 135.662 208.1 135.412 208.207 135.435C208.313 135.458 208.447 137.057 208.531 137.195C208.614 137.333 208.824 137.383 208.924 137.152C209.042 136.881 208.736 135.107 208.736 135.107C208.736 135.107 208.751 134.966 208.818 135.013C208.885 135.06 209.096 136.414 209.234 136.54C209.35 136.645 209.447 136.543 209.447 136.543C209.7 136.37 209.312 135.082 209.316 134.441C209.319 133.801 209.022 133.081 209.111 132.318C209.116 132.27 209.132 132.152 209.142 132.079Z" fill="#F8A492"/>
<path d="M206.358 115.279L201.946 118.239C201.946 118.239 199.46 114.542 198.125 113.225C196.454 111.576 198.734 106.525 199.812 106.811C202.221 107.45 206.358 115.279 206.358 115.279Z" fill="#F47458"/>
</g>
</g>
</g>
<defs>
<clipPath id="clip0_441_523">
<rect width="266" height="187" fill="white"/>
</clipPath>
</defs>
</svg>
