<svg width="207" height="207" viewBox="0 0 207 207" fill="none" xmlns="http://www.w3.org/2000/svg">
<mask id="mask0_438_506" style="mask-type:luminance" maskUnits="userSpaceOnUse" x="0" y="0" width="207" height="207">
<path d="M207 0H0V207H207V0Z" fill="white"/>
</mask>
<g mask="url(#mask0_438_506)">
<path d="M37.835 61.2012C30.3168 77.4594 10.557 112.685 10.8431 133.59C11.1296 154.496 55.2322 191.152 100.766 192.298C146.301 193.444 182.098 168.529 189.83 129.581C193.091 113.158 196.443 95.7664 192.946 79.098C190.048 65.2878 183.123 53.5318 173.772 43.9444C160.049 29.8742 141.101 20.4739 121.99 16.1079C119.228 15.477 116.447 14.928 113.653 14.456C110.042 13.8458 106.543 13.561 103.172 13.5605C66.9794 13.5564 44.7124 46.3278 37.835 61.2012Z" fill="url(#paint0_linear_438_506)"/>
<path d="M12.372 180.735H200.237" stroke="#263238" stroke-miterlimit="10"/>
<g opacity="0.7">
<path d="M26.3022 131.22C28.6306 131.296 33.4375 129.256 33.4417 129.254C33.4914 129.233 31.1345 126.494 30.966 126.338C29.0152 124.535 24.1851 122.199 21.5938 123.659C19.7271 124.712 19.4162 127.123 20.6011 128.803C21.812 130.52 24.3192 131.154 26.3022 131.22Z" fill="#01DFE1"/>
<path d="M33.5713 144.604C35.7481 144.085 39.5772 141.106 39.881 140.867C41.5296 143.018 43.3959 145.092 45.4001 147.087C46.5439 148.229 47.7321 149.342 48.9377 150.444C48.3126 150.024 47.7499 149.652 47.6663 149.608C45.3077 148.384 40.033 147.407 37.9199 149.5C36.3968 151.008 36.7338 153.415 38.3207 154.723C39.9402 156.059 42.5277 156.009 44.457 155.548C46.4156 155.081 49.7309 152.606 50.5999 151.94C51.0669 152.358 51.5281 152.78 51.9967 153.196C54.2443 155.193 56.4957 157.176 58.6443 159.189C59.402 159.898 60.1223 160.624 60.8456 161.348C60.29 160.974 59.8189 160.664 59.7419 160.624C57.3841 159.401 52.1089 158.423 49.995 160.516C48.4724 162.024 48.8094 164.432 50.3958 165.74C52.017 167.075 54.6029 167.025 56.5329 166.564C58.4017 166.118 61.4823 163.862 62.5185 163.075C63.2364 163.839 63.9576 164.602 64.6192 165.374C65.0589 165.912 65.52 166.398 65.9307 166.963C66.3505 167.513 66.7649 168.058 67.176 168.598C67.9295 169.666 68.7132 170.763 69.422 171.823C69.9205 172.557 70.3821 173.265 70.8495 173.978C70.1034 173.263 68.6139 171.895 68.476 171.795C66.3315 170.228 61.2654 168.463 58.8588 170.212C57.1254 171.472 57.0935 173.903 58.4642 175.436C59.8636 177.001 62.4275 177.344 64.4047 177.181C66.5815 177.001 70.6632 174.748 71.1707 174.463C71.9395 175.644 72.676 176.8 73.3538 177.903C73.9632 178.89 74.5287 179.83 75.0627 180.732L76.7937 180.043C76.1884 179.065 75.5434 178.041 74.8433 176.961C74.0679 175.758 73.2142 174.489 72.3262 173.193C72.5982 172.937 74.1358 171.465 75.3981 169.912C77.4225 170.88 81.7609 171.229 82.321 171.271C82.3111 172.68 82.2866 174.051 82.2432 175.344C82.2158 176.235 82.1823 177.089 82.1442 177.912L83.9786 177.182C83.9902 176.595 84.0002 175.999 84.006 175.38C84.0225 173.949 84.0118 172.419 83.9857 170.849C84.5491 170.751 89.1458 169.921 90.95 168.684C92.5857 167.562 94.3585 165.678 94.4557 163.58C94.551 161.526 92.9914 159.661 90.851 159.778C87.8814 159.942 85.0671 164.509 84.3931 167.078C84.3529 167.23 84.1049 168.922 83.9662 169.993C83.9522 169.351 83.9451 168.728 83.9223 168.068C83.8876 166.762 83.8131 165.459 83.7381 164.058C83.6785 163.383 83.6185 162.7 83.5576 162.011C83.5112 161.326 83.3755 160.609 83.2873 159.901C83.048 158.262 82.7255 156.615 82.3641 154.962C83.5079 154.928 87.5672 154.749 89.3627 153.883C91.15 153.022 93.1873 151.428 93.6008 149.369C94.0057 147.353 92.7467 145.273 90.6138 145.065C87.6529 144.777 84.1794 148.865 83.1237 151.303C83.0575 151.454 82.4961 153.289 82.2076 154.302C81.9823 153.31 81.7625 152.319 81.5025 151.323C80.7515 148.447 79.9016 145.56 79.067 142.676C78.8103 141.792 78.566 140.909 78.3176 140.026C78.725 140.018 83.5543 139.909 85.5655 138.94C87.3527 138.079 89.3905 136.485 89.8036 134.426C90.2089 132.411 88.9495 130.33 86.8166 130.123C83.8561 129.834 80.3826 133.922 79.3269 136.36C79.2475 136.543 78.4439 139.184 78.2721 139.865C77.726 137.919 77.1998 135.976 76.7589 134.038C76.1466 131.367 75.6949 128.711 75.4461 126.106C75.6357 126.103 80.677 126.011 82.7367 125.019C84.5239 124.158 86.5616 122.564 86.9748 120.505C87.3801 118.489 86.1211 116.409 83.9878 116.201C81.0268 115.913 77.5538 120.001 76.4973 122.439C76.4149 122.63 75.5521 125.471 75.432 125.997C75.418 125.842 75.3857 125.683 75.3732 125.529C75.1431 122.744 75.2706 120.017 75.5148 117.471C75.6535 115.991 75.8692 114.584 76.1093 113.22C77.0504 113.299 81.3526 113.614 83.3051 112.926C85.1759 112.266 87.3768 110.905 88.0135 108.904C88.6378 106.945 87.6144 104.74 85.5171 104.299C82.6058 103.687 78.7055 107.369 77.3878 109.676C77.3162 109.801 76.7291 111.157 76.3155 112.15C76.4331 111.536 76.5436 110.9 76.6687 110.315C77.1311 108.113 77.6908 106.126 78.2005 104.37C78.4981 103.374 78.7867 102.479 79.0665 101.644C80.0299 101.24 83.893 99.5646 85.2832 98.0813C86.639 96.6335 87.9655 94.4124 87.609 92.3428C87.2596 90.3163 85.3353 88.83 83.2711 89.4055C80.4058 90.2033 78.6397 95.2694 78.5333 97.9235C78.5246 98.1529 78.7933 101.757 78.8438 101.736C78.8438 101.736 78.8906 101.717 78.9022 101.712C78.6165 102.51 78.3209 103.368 78.0158 104.312C77.4668 106.061 76.8624 108.041 76.3503 110.241C75.8324 112.438 75.3323 114.84 75.0329 117.417C74.7295 120 74.5428 122.732 74.7137 125.573C74.7158 125.605 74.722 125.638 74.7237 125.67C74.4161 124.855 73.478 122.604 73.386 122.44C72.0944 120.119 68.2351 116.393 65.3168 116.973C63.2149 117.391 62.1675 119.585 62.7694 121.551C63.385 123.559 65.5689 124.943 67.4327 125.624C69.5346 126.391 74.3718 126.019 74.7568 125.989C74.9443 128.692 75.3575 131.451 75.928 134.22C76.253 135.804 76.6301 137.388 77.0276 138.973C76.7386 138.276 76.4749 137.656 76.4285 137.573C75.1364 135.252 71.2767 131.527 68.3584 132.106C66.2561 132.524 65.2095 134.718 65.8119 136.684C66.4267 138.692 68.611 140.077 70.4748 140.757C72.3659 141.448 76.4964 141.213 77.5886 141.136C77.7471 141.743 77.8995 142.35 78.0605 142.955C78.8335 145.861 79.6176 148.757 80.2994 151.621C80.5404 152.63 80.7403 153.633 80.9436 154.635C80.6865 154.017 80.4642 153.499 80.4228 153.424C79.1303 151.102 75.2714 147.377 72.3539 147.956C70.2517 148.374 69.2038 150.568 69.8062 152.535C70.4206 154.542 72.6061 155.927 74.4695 156.607C76.2737 157.266 80.0891 157.084 81.3874 156.999C81.565 158.032 81.7443 159.066 81.8701 160.075C81.9401 160.767 82.0556 161.427 82.0875 162.125C82.1335 162.814 82.1798 163.498 82.2249 164.175C82.2634 165.481 82.3131 166.829 82.3193 168.104C82.3305 168.991 82.3243 169.837 82.321 170.688C82.0929 169.681 81.6048 167.718 81.5456 167.559C80.9308 165.905 79.288 163.471 77.3832 162.059C77.2938 161.814 77.1837 161.579 77.0495 161.354C75.9955 159.589 73.6655 158.893 71.9453 160.172C69.5582 161.947 69.7308 167.309 70.5862 169.823C70.6363 169.972 71.3632 171.52 71.8381 172.49C71.4717 171.962 71.1235 171.446 70.7406 170.908C69.99 169.839 69.2096 168.793 68.3746 167.665C67.9523 167.134 67.5246 166.599 67.0932 166.058C66.6776 165.512 66.1688 164.989 65.7043 164.447C64.601 163.213 63.4231 162.016 62.2097 160.837C63.1453 160.178 66.4317 157.788 67.4518 156.076C68.4677 154.372 69.2874 151.918 68.4967 149.973C67.7221 148.068 65.525 147.028 63.6314 148.031C61.0025 149.423 60.3608 154.75 60.8245 157.366C60.8539 157.529 61.3974 159.368 61.7154 160.373C60.9805 159.67 60.2498 158.964 59.4831 158.277C57.2707 156.292 54.9697 154.353 52.6815 152.408C51.981 151.813 51.2896 151.211 50.5949 150.612C50.9307 150.38 54.8985 147.625 56.0415 145.707C57.0571 144.003 57.8768 141.55 57.086 139.604C56.3119 137.7 54.1143 136.659 52.2207 137.663C49.5918 139.055 48.9505 144.381 49.4142 146.997C49.4494 147.194 50.2352 149.839 50.4683 150.502C48.9398 149.181 47.4287 147.85 45.9921 146.477C44.0074 144.586 42.1651 142.621 40.5207 140.586C40.6772 140.478 44.8312 137.621 46.002 135.657C47.0176 133.953 47.8377 131.499 47.0465 129.554C46.2724 127.649 44.0753 126.609 42.1808 127.612C39.5523 129.005 38.911 134.331 39.3747 136.946C39.4111 137.152 40.2586 139.998 40.449 140.502C40.3517 140.381 40.2371 140.266 40.141 140.144C38.4134 137.948 37.0153 135.604 35.8139 133.345C35.1134 132.035 34.5172 130.742 33.9654 129.472C34.7934 129.019 38.5562 126.908 39.8044 125.257C41.0013 123.674 42.086 121.325 41.5134 119.305C40.9529 117.327 38.8829 116.051 36.8911 116.841C34.1252 117.936 32.9026 123.16 33.0761 125.81C33.0856 125.954 33.3436 127.409 33.5472 128.466C33.3067 127.888 33.0475 127.297 32.8285 126.74C32.0005 124.649 31.3704 122.682 30.8264 120.937C30.5255 119.941 30.2729 119.035 30.046 118.186C30.6265 117.317 32.9246 113.788 33.2653 111.784C33.5982 109.828 33.4785 107.244 32.0399 105.715C30.6306 104.218 28.2054 104.04 26.8011 105.657C24.8512 107.904 26.1735 113.104 27.5484 115.377C27.668 115.572 29.88 118.43 29.9111 118.385C29.9111 118.385 29.9392 118.343 29.9459 118.333C30.1479 119.155 30.3748 120.035 30.6418 120.99C31.1477 122.752 31.7364 124.737 32.523 126.854C33.3034 128.972 34.2105 131.252 35.3829 133.566C36.555 135.888 37.9058 138.27 39.6161 140.545C39.6355 140.57 39.6591 140.595 39.6786 140.62C38.9715 140.11 36.9474 138.751 36.7802 138.664C34.4224 137.441 29.1477 136.463 27.0338 138.556C25.5115 140.064 25.8481 142.472 27.4349 143.779C29.0562 145.115 31.642 145.064 33.5713 144.604Z" fill="#01DFE1"/>
<path d="M75.7926 112.75C75.846 112.76 75.3911 109.174 75.3368 108.952C74.7034 106.372 71.964 101.759 68.9964 101.548C66.8593 101.395 65.27 103.235 65.3317 105.291C65.3942 107.389 67.1359 109.302 68.7538 110.451C70.6528 111.799 75.7889 112.748 75.7926 112.75Z" fill="#01DFE1"/>
<path d="M192.718 117.052C190.569 117.951 185.351 117.753 185.347 117.753C185.292 117.751 186.521 114.353 186.624 114.147C187.806 111.769 191.489 107.868 194.431 108.312C196.549 108.632 197.698 110.775 197.188 112.767C196.666 114.801 194.548 116.285 192.718 117.052Z" fill="#01DFE1"/>
<path d="M132.935 120.221C135.005 120.17 138.914 118.346 139.766 117.937C140.475 119.127 141.176 120.365 141.833 121.699C142.966 123.993 144.054 126.496 144.83 129.18C144.873 129.329 144.9 129.489 144.941 129.639C144.642 129.19 142.825 126.841 142.68 126.692C140.826 124.789 136.127 122.203 133.462 123.525C131.542 124.478 131.105 126.87 132.2 128.61C133.318 130.387 135.79 131.152 137.767 131.322C140.045 131.517 144.789 129.81 144.967 129.746C145.661 132.269 146.182 134.912 146.56 137.627C146.837 139.594 147.036 141.598 147.218 143.611C146.815 143.035 145.125 140.853 144.985 140.709C143.132 138.807 138.432 136.22 135.767 137.543C133.847 138.496 133.41 140.887 134.506 142.627C135.624 144.405 138.095 145.17 140.072 145.339C142.296 145.53 146.849 143.915 147.232 143.777C147.314 144.691 147.4 145.604 147.474 146.52C147.72 149.513 147.952 152.514 148.272 155.468C148.383 156.492 148.53 157.496 148.673 158.503C148.043 157.659 146.866 156.144 146.75 156.026C144.897 154.123 140.197 151.537 137.532 152.859C135.612 153.812 135.175 156.204 136.271 157.944C137.389 159.721 139.86 160.486 141.836 160.656C143.822 160.826 147.68 159.55 148.761 159.176C149.011 160.85 149.295 162.504 149.654 164.12C149.823 164.814 149.952 165.532 150.152 166.188C150.34 166.854 150.526 167.514 150.711 168.166C151.139 169.503 151.532 170.746 151.964 171.98C152.178 172.605 152.393 173.19 152.608 173.794C152.098 172.843 151.264 171.349 151.173 171.222C149.629 169.06 145.375 165.792 142.541 166.695C140.499 167.346 139.704 169.645 140.523 171.53C141.36 173.456 143.687 174.587 145.615 175.054C147.741 175.569 152.333 174.71 152.895 174.601C153.428 176.078 153.962 177.512 154.487 178.844C154.712 179.42 154.933 179.973 155.153 180.518L157.127 180.548C156.798 179.793 156.463 179.006 156.121 178.183C155.621 176.99 155.111 175.717 154.601 174.403C155.109 174.166 159.04 172.297 160.588 170.672C162.32 171.675 164.28 172.504 164.625 172.647C164.256 174.174 163.91 175.664 163.612 177.063C163.342 178.322 163.103 179.508 162.885 180.637L163.611 180.648H164.751C164.928 179.62 165.122 178.546 165.34 177.414C165.581 176.143 165.859 174.8 166.157 173.423C166.733 173.508 171.348 174.163 173.447 173.557C175.353 173.006 177.628 171.775 178.379 169.814C179.115 167.894 178.22 165.633 176.152 165.072C173.281 164.293 169.174 167.744 167.726 169.971C167.633 170.114 166.727 171.922 166.284 172.855C166.468 172.023 166.647 171.197 166.853 170.334C167.138 169.091 167.48 167.786 167.805 166.521C167.997 165.87 168.192 165.213 168.388 164.55C168.571 163.876 168.829 163.257 169.049 162.598C169.392 161.641 169.794 160.672 170.194 159.702C171.442 160.07 175.124 161.083 177.029 160.835C178.997 160.58 181.432 159.707 182.473 157.883C183.491 156.096 182.949 153.726 180.99 152.858C178.27 151.653 173.687 154.443 171.918 156.424C171.861 156.489 171.531 156.946 171.144 157.493C171.563 156.559 171.977 155.625 172.433 154.693C173.726 152.048 175.125 149.394 176.516 146.728C176.806 146.173 177.087 145.614 177.375 145.057C178.424 145.371 182.403 146.505 184.399 146.246C186.366 145.99 188.802 145.117 189.841 143.293C190.859 141.506 190.319 139.136 188.358 138.268C185.639 137.063 181.057 139.852 179.288 141.835C179.225 141.905 178.831 142.453 178.397 143.069C179.132 141.61 179.846 140.146 180.51 138.672C181.674 136.096 182.68 133.494 183.456 130.897C183.825 131.012 188.463 132.435 190.682 132.146C192.649 131.89 195.084 131.018 196.125 129.194C197.143 127.407 196.601 125.037 194.642 124.169C191.922 122.964 187.34 125.754 185.571 127.735C185.446 127.876 184.037 129.866 183.558 130.594C183.567 130.563 183.58 130.532 183.589 130.501C184.379 127.768 184.794 125.06 185.065 122.474C185.337 119.894 185.375 117.441 185.351 115.183C185.334 112.925 185.178 110.86 185.024 109.034C184.934 108.046 184.834 107.143 184.73 106.303C184.74 106.31 184.781 106.339 184.781 106.339C184.826 106.37 185.877 102.912 185.919 102.687C186.396 100.074 185.784 94.7441 183.162 93.3373C181.274 92.3247 179.071 93.353 178.286 95.2537C177.486 97.1946 178.292 99.6521 179.298 101.362C180.33 103.114 183.732 105.595 184.584 106.2C184.674 107.075 184.76 108.012 184.832 109.049C184.945 110.874 185.055 112.936 185.025 115.185C185.018 115.784 184.986 116.429 184.967 117.054C184.781 115.994 184.505 114.542 184.463 114.404C183.683 111.865 180.683 107.417 177.708 107.377C175.566 107.348 174.085 109.276 174.264 111.325C174.448 113.416 176.296 115.225 177.977 116.28C179.731 117.379 183.999 118.014 184.933 118.143C184.869 119.527 184.772 120.946 184.584 122.42C184.264 124.959 183.79 127.647 182.956 130.314C182.91 130.462 182.844 130.61 182.795 130.758C182.794 130.219 182.574 127.257 182.535 127.052C182.039 124.443 179.546 119.693 176.594 119.326C174.467 119.062 172.782 120.815 172.737 122.871C172.689 124.97 174.328 126.972 175.883 128.204C177.675 129.623 182.574 130.816 182.758 130.861C181.945 133.349 180.922 135.84 179.739 138.313C178.884 140.107 177.946 141.888 176.987 143.666C176.969 142.964 176.763 140.212 176.725 140.015C176.229 137.406 173.736 132.656 170.783 132.289C168.657 132.025 166.973 133.778 166.926 135.834C166.879 137.933 168.518 139.935 170.073 141.167C171.823 142.553 176.511 143.717 176.907 143.814C176.471 144.622 176.039 145.429 175.595 146.235C174.148 148.866 172.687 151.497 171.325 154.139C170.853 155.054 170.421 155.973 169.985 156.891C169.925 155.839 169.778 153.927 169.748 153.764C169.251 151.154 166.758 146.404 163.805 146.037C161.679 145.773 159.996 147.527 159.949 149.583C159.902 151.682 161.54 153.684 163.095 154.915C164.657 156.153 168.578 157.217 169.687 157.501C168.972 159.035 168.297 160.572 167.704 162.118C167.463 162.789 167.174 163.459 166.979 164.117C166.768 164.776 166.56 165.428 166.353 166.074C165.974 167.426 165.617 168.68 165.295 169.947C165.128 170.586 164.986 171.192 164.831 171.816C164.93 170.741 165.059 169.035 165.053 168.878C164.958 166.224 163.213 161.151 160.351 160.341C158.289 159.758 156.358 161.236 156.001 163.261C155.955 163.518 155.936 163.778 155.94 164.038C154.662 166.035 153.991 168.894 154.005 170.659C154.006 170.829 154.248 172.836 154.393 173.859C154.087 173.065 153.781 172.276 153.476 171.443C153.028 170.249 152.595 168.972 152.167 167.737C151.968 167.089 151.768 166.433 151.566 165.772C151.348 165.108 151.221 164.451 151.041 163.78C150.8 162.792 150.6 161.761 150.398 160.732C151.642 160.35 155.273 159.165 156.724 157.907C158.224 156.608 159.775 154.536 159.635 152.442C159.499 150.39 157.74 148.712 155.627 149.068C152.694 149.564 150.411 154.418 150.028 157.048C150.016 157.133 149.993 157.697 149.972 158.365C149.806 157.356 149.636 156.348 149.503 155.319C149.122 152.399 148.825 149.414 148.514 146.424C148.45 145.801 148.376 145.179 148.308 144.556C149.356 144.239 153.3 142.99 154.823 141.672C156.322 140.374 157.872 138.303 157.733 136.207C157.597 134.156 155.838 132.477 153.724 132.834C150.791 133.33 148.508 138.184 148.126 140.813C148.112 140.906 148.087 141.58 148.064 142.334C147.872 140.712 147.661 139.097 147.401 137.501C146.95 134.71 146.355 131.984 145.569 129.391C145.94 129.282 150.593 127.911 152.285 126.446C153.785 125.147 155.334 123.077 155.196 120.981C155.059 118.929 153.3 117.251 151.187 117.608C148.253 118.104 145.971 122.959 145.588 125.587C145.561 125.773 145.485 128.21 145.487 129.082C145.478 129.051 145.472 129.017 145.462 128.987C144.612 126.271 143.466 123.784 142.264 121.478C141.068 119.175 139.746 117.109 138.481 115.239C137.22 113.365 135.951 111.729 134.816 110.29C134.196 109.516 133.614 108.819 133.063 108.175C133.075 108.175 133.126 108.176 133.126 108.176C133.181 108.178 132.15 104.714 132.061 104.503C131.017 102.059 127.566 97.9526 124.604 98.2258C122.47 98.4221 121.2 100.495 121.593 102.514C121.996 104.575 124.026 106.179 125.808 107.05C127.635 107.942 131.841 108.135 132.885 108.17C133.443 108.85 134.032 109.584 134.664 110.409C135.765 111.869 136.994 113.528 138.21 115.421C138.535 115.924 138.863 116.479 139.192 117.011C138.452 116.229 137.422 115.171 137.31 115.079C135.259 113.392 130.303 111.337 127.8 112.944C125.997 114.102 125.825 116.528 127.105 118.137C128.411 119.78 130.952 120.27 132.935 120.221Z" fill="#01DFE1"/>
<path d="M139.895 117.385C139.848 117.413 138.999 113.9 138.97 113.673C138.645 111.037 139.566 105.751 142.264 104.499C144.207 103.596 146.347 104.751 147.02 106.694C147.708 108.678 146.76 111.085 145.656 112.733C144.361 114.669 139.898 117.382 139.895 117.385Z" fill="#01DFE1"/>
</g>
<path d="M39.4406 94.5442L50.9955 99.9458L60.6165 87.1329C60.6165 87.1329 60.4991 83.8885 60.637 83.4165C60.7746 82.944 61.9328 81.2613 62.1367 80.992C62.3411 80.7228 62.7449 80.9954 62.8105 81.4011C62.8758 81.8067 62.6036 82.1431 62.4667 82.4806C62.3295 82.8176 62.0551 83.5593 62.0551 83.5593L62.3873 84.5746L65.9844 81.7568C65.9844 81.7568 66.8014 80.6796 67.0691 81.1542C67.2315 81.4425 67.208 81.7996 67.009 82.0643L65.3624 84.2536L66.4434 84.3275L69.0908 82.1114C69.0908 82.1114 69.5651 81.9116 69.6292 82.5201C69.6698 82.9029 69.5269 83.2822 69.2439 83.5435L67.6198 85.0427L66.5709 85.6791L69.6867 84.4129C69.6867 84.4129 70.0898 84.82 69.9533 85.0221L66.5601 87.6389L69.0624 87.247C69.0624 87.247 69.3981 87.7225 69.1937 87.9917L62.2903 89.9131C62.2903 89.9131 52.573 107.929 52.4366 108.199C52.2997 108.468 50.8772 109.069 49.7981 108.725C48.7186 108.381 34.9377 102.291 34.9377 102.291" fill="#01DFE1"/>
<path d="M39.4406 94.5442L50.9955 99.9458L60.6165 87.1329C60.6165 87.1329 60.4991 83.8885 60.637 83.4165C60.7746 82.944 61.9328 81.2613 62.1367 80.992C62.3411 80.7228 62.7449 80.9954 62.8105 81.4011C62.8758 81.8067 62.6036 82.1431 62.4667 82.4806C62.3295 82.8176 62.0551 83.5593 62.0551 83.5593L62.3873 84.5746L65.9844 81.7568C65.9844 81.7568 66.8014 80.6796 67.0691 81.1542C67.2315 81.4425 67.208 81.7996 67.009 82.0643L65.3624 84.2536L66.4434 84.3275L69.0908 82.1114C69.0908 82.1114 69.5651 81.9116 69.6292 82.5201C69.6698 82.9029 69.5269 83.2822 69.2439 83.5435L67.6198 85.0427L66.5709 85.6791L69.6867 84.4129C69.6867 84.4129 70.0898 84.82 69.9533 85.0221L66.5601 87.6389L69.0624 87.247C69.0624 87.247 69.3981 87.7225 69.1937 87.9917L62.2903 89.9131C62.2903 89.9131 52.573 107.929 52.4366 108.199C52.2997 108.468 50.8772 109.069 49.7981 108.725C48.7186 108.381 34.9377 102.291 34.9377 102.291" stroke="#263238" stroke-miterlimit="10"/>
<path d="M57.1847 99.3814C59.7065 94.7038 62.2903 89.9131 62.2903 89.9131L69.1937 87.9914C69.3981 87.7221 69.0624 87.2475 69.0624 87.2475L66.5601 87.639L69.9533 85.0222C70.0898 84.8205 69.6863 84.4125 69.6863 84.4125L66.5709 85.6791L67.6194 85.0432L69.2439 83.544C69.5269 83.2826 69.6698 82.903 69.6292 82.5202C69.5651 81.9117 69.0908 82.1119 69.0908 82.1119L66.4434 84.3267L65.3624 84.2537L67.0094 82.0644C67.2084 81.8001 67.2315 81.443 67.0691 81.1547C66.8014 80.68 65.9844 81.7569 65.9844 81.7569L62.3873 84.5751L62.0551 83.5597C62.0551 83.5597 62.3295 82.8177 62.4663 82.4806C62.6036 82.1436 62.8758 81.8072 62.8105 81.4011C62.7449 80.9955 62.3411 80.7229 62.1367 80.9921C61.9328 81.2613 60.7746 82.9445 60.6366 83.4165C60.4991 83.889 60.6161 87.1329 60.6161 87.1329L53.477 96.6413L57.1847 99.3814Z" fill="white"/>
<path d="M57.1847 99.3814C59.7065 94.7038 62.2903 89.9131 62.2903 89.9131L69.1937 87.9914C69.3981 87.7221 69.0624 87.2475 69.0624 87.2475L66.5601 87.639L69.9533 85.0222C70.0898 84.8205 69.6863 84.4125 69.6863 84.4125L66.5709 85.6791L67.6194 85.0432L69.2439 83.544C69.5269 83.2826 69.6698 82.903 69.6292 82.5202C69.5651 81.9117 69.0908 82.1119 69.0908 82.1119L66.4434 84.3267L65.3624 84.2537L67.0094 82.0644C67.2084 81.8001 67.2315 81.443 67.0691 81.1547C66.8014 80.68 65.9844 81.7569 65.9844 81.7569L62.3873 84.5751L62.0551 83.5597C62.0551 83.5597 62.3295 82.8177 62.4663 82.4806C62.6036 82.1436 62.8758 81.8072 62.8105 81.4011C62.7449 80.9955 62.3411 80.7229 62.1367 80.9921C61.9328 81.2613 60.7746 82.9445 60.6366 83.4165C60.4991 83.889 60.6161 87.1329 60.6161 87.1329L53.477 96.6413L57.1847 99.3814Z" stroke="#263238" stroke-miterlimit="10"/>
<path d="M62.3873 84.5745C62.3873 84.5745 63.0589 85.1463 63.268 85.6774C63.4774 86.2084 62.5157 87.4758 62.0906 87.6854" stroke="#263238" stroke-miterlimit="10"/>
<path d="M60.1592 175.746L65.0742 179.227C65.0742 179.227 68.0363 179.834 68.4164 180.138C68.796 180.442 68.796 181.733 68.796 181.733C68.796 181.733 65.7577 182.113 62.947 182.189C60.1368 182.265 58.6932 182.188 56.4907 182.113C54.2878 182.037 52.4646 182.189 52.0087 181.657C51.5529 181.126 51.9963 176.488 51.9963 176.488C51.9963 176.488 57.1432 173.708 60.1592 175.746Z" fill="white"/>
<path d="M60.1592 175.746L65.0742 179.227C65.0742 179.227 68.0363 179.834 68.4164 180.138C68.796 180.442 68.796 181.733 68.796 181.733C68.796 181.733 65.7577 182.113 62.947 182.189C60.1368 182.265 58.6932 182.188 56.4907 182.113C54.2878 182.037 52.4646 182.189 52.0087 181.657C51.5529 181.126 51.9963 176.488 51.9963 176.488C51.9963 176.488 57.1432 173.708 60.1592 175.746Z" stroke="#263238" stroke-miterlimit="10"/>
<path d="M62.9471 182.188C65.7577 182.112 68.796 181.733 68.796 181.733C68.796 181.733 68.7956 181.331 68.7298 180.922C65.5842 181.179 59.7472 181.584 58.1616 181.201C56.3582 180.766 52.9788 180.585 51.8113 180.534C51.8312 181.087 51.8883 181.516 52.0088 181.657C52.4646 182.188 54.2874 182.037 56.4903 182.112C58.6932 182.188 60.1364 182.265 62.9471 182.188Z" fill="white"/>
<path d="M62.9471 182.188C65.7577 182.112 68.796 181.733 68.796 181.733C68.796 181.733 68.7956 181.331 68.7298 180.922C65.5842 181.179 59.7472 181.584 58.1616 181.201C56.3582 180.766 52.9788 180.585 51.8113 180.534C51.8312 181.087 51.8883 181.516 52.0088 181.657C52.4646 182.188 54.2874 182.037 56.4903 182.112C58.6932 182.188 60.1364 182.265 62.9471 182.188Z" stroke="#263238" stroke-miterlimit="10"/>
<path d="M31.9927 177.859L34.5748 181.126L39.0572 183.936C39.3611 184.848 39.2087 185.075 39.1325 185.379C39.0568 185.683 37.6897 185.759 36.0184 185.683C34.3475 185.607 30.2456 186.139 29.0301 185.759C27.815 185.379 23.9408 184.316 23.485 184.088C23.0296 183.86 22.2695 183.632 22.4972 182.797C22.7253 181.961 23.3951 179.032 23.3951 179.032C23.3951 179.032 27.1311 176.34 31.9927 177.859Z" fill="white"/>
<path d="M31.9927 177.859L34.5748 181.126L39.0572 183.936C39.3611 184.848 39.2087 185.075 39.1325 185.379C39.0568 185.683 37.6897 185.759 36.0184 185.683C34.3475 185.607 30.2456 186.139 29.0301 185.759C27.815 185.379 23.9408 184.316 23.485 184.088C23.0296 183.86 22.2695 183.632 22.4972 182.797C22.7253 181.961 23.3951 179.032 23.3951 179.032C23.3951 179.032 27.1311 176.34 31.9927 177.859Z" stroke="#263238" stroke-miterlimit="10"/>
<path d="M36.0184 185.683C37.6897 185.759 39.0568 185.683 39.1329 185.379C39.1863 185.166 39.2741 184.984 39.2174 184.581C37.1441 184.67 31.7679 184.878 30.2456 184.696C28.5085 184.487 23.4701 182.628 22.6222 182.312C22.5738 182.506 22.5307 182.675 22.4976 182.796C22.2695 183.632 23.0292 183.86 23.485 184.088C23.9408 184.315 27.8146 185.379 29.0301 185.759C30.2456 186.139 34.3475 185.607 36.0184 185.683Z" fill="white"/>
<path d="M36.0184 185.683C37.6897 185.759 39.0568 185.683 39.1329 185.379C39.1863 185.166 39.2741 184.984 39.2174 184.581C37.1441 184.67 31.7679 184.878 30.2456 184.696C28.5085 184.487 23.4701 182.628 22.6222 182.312C22.5738 182.506 22.5307 182.675 22.4976 182.796C22.2695 183.632 23.0292 183.86 23.485 184.088C23.9408 184.315 27.8146 185.379 29.0301 185.759C30.2456 186.139 34.3475 185.607 36.0184 185.683Z" stroke="#263238" stroke-miterlimit="10"/>
<path d="M28.7155 125.093L30.8658 151.151L24.1875 175.215L23.2337 179.031C23.2337 179.031 23.9752 179.668 25.9893 179.562C28.0034 179.456 32.032 178.501 32.032 178.501C32.032 178.501 32.5619 177.547 32.456 176.699C32.35 175.851 31.926 175.533 31.926 175.215C31.926 174.897 40.8308 151.151 40.8308 151.151L41.679 137.37L47.7214 152.741L51.6436 176.488C51.6436 176.488 51.8556 177.654 52.1735 177.548C52.4915 177.442 57.7919 175.533 57.7919 175.533L59.8064 175.746C59.8064 175.746 60.0184 172.671 59.1701 172.035C58.3223 171.399 58.0043 170.763 58.0043 170.763L57.156 148.183L48.8876 124.967L48.1453 122.105L29.0636 123.165L28.7155 125.093Z" fill="#07274D"/>
<path d="M28.7155 125.093L30.8658 151.151L24.1875 175.215L23.2337 179.031C23.2337 179.031 23.9752 179.668 25.9893 179.562C28.0034 179.456 32.032 178.501 32.032 178.501C32.032 178.501 32.5619 177.547 32.456 176.699C32.35 175.851 31.926 175.533 31.926 175.215C31.926 174.897 40.8308 151.151 40.8308 151.151L41.679 137.37L47.7214 152.741L51.6436 176.488C51.6436 176.488 51.8556 177.654 52.1735 177.548C52.4915 177.442 57.7919 175.533 57.7919 175.533L59.8064 175.746C59.8064 175.746 60.0184 172.671 59.1701 172.035C58.3223 171.399 58.0043 170.763 58.0043 170.763L57.156 148.183L48.8876 124.967L48.1453 122.105L29.0636 123.165L28.7155 125.093Z" stroke="#263238" stroke-miterlimit="10"/>
<path d="M28.7155 125.093L28.8864 126.515L48.8872 124.967L48.0277 123.101L28.7155 125.093Z" fill="#01DFE1"/>
<path d="M28.7155 125.093L28.8864 126.515L48.8872 124.967L48.0277 123.101L28.7155 125.093Z" stroke="#263238" stroke-miterlimit="10"/>
<path d="M26.4857 92.5898C26.4857 92.5898 25.2693 96.712 25.4043 98.604C25.5397 100.496 27.9044 115.43 27.9044 115.43L28.7834 121.174C28.7834 121.174 28.1069 122.931 28.1748 123.336C28.2423 123.742 28.1073 124.823 28.7155 125.093C29.3236 125.364 34.4593 125.026 39.7303 124.891C45.001 124.756 47.0279 124.553 47.7036 124.283C48.3792 124.012 49.1902 123.066 49.0553 122.323C48.9199 121.58 48.3796 120.228 48.3796 120.228C48.3796 120.228 48.1089 102.186 47.7036 99.4154C47.2983 96.6445 46.8255 92.8601 45.4067 91.4409C43.9875 90.0222 41.6219 89.4136 41.6219 89.4136L39.7303 92.9276C39.7303 92.9276 33.2425 90.2921 30.8774 90.0222C28.5126 89.7518 26.4857 92.5898 26.4857 92.5898Z" fill="#01DFE1"/>
<path d="M26.4857 92.5898C26.4857 92.5898 25.2693 96.712 25.4043 98.604C25.5397 100.496 27.9044 115.43 27.9044 115.43L28.7834 121.174C28.7834 121.174 28.1069 122.931 28.1748 123.336C28.2423 123.742 28.1073 124.823 28.7155 125.093C29.3236 125.364 34.4593 125.026 39.7303 124.891C45.001 124.756 47.0279 124.553 47.7036 124.283C48.3792 124.012 49.1902 123.066 49.0553 122.323C48.9199 121.58 48.3796 120.228 48.3796 120.228C48.3796 120.228 48.1089 102.186 47.7036 99.4154C47.2983 96.6445 46.8255 92.8601 45.4067 91.4409C43.9875 90.0222 41.6219 89.4136 41.6219 89.4136L39.7303 92.9276C39.7303 92.9276 33.2425 90.2921 30.8774 90.0222C28.5126 89.7518 26.4857 92.5898 26.4857 92.5898Z" stroke="#263238" stroke-miterlimit="10"/>
<path d="M30.4509 105.75C29.5737 106.023 28.8467 106.23 28.4944 106.289" stroke="#263238" stroke-miterlimit="10"/>
<path d="M36.4403 103.75C36.4403 103.75 33.9215 104.632 31.6801 105.359" stroke="#263238" stroke-miterlimit="10"/>
<path d="M30.1392 110.688C29.7335 110.974 29.3629 111.207 29.0462 111.365" stroke="#263238" stroke-miterlimit="10"/>
<path d="M37.1027 104.522C37.1027 104.522 33.9062 107.719 31.2918 109.813" stroke="#263238" stroke-miterlimit="10"/>
<path d="M40.6763 96.4416C40.6763 96.4416 35.2028 93.5357 32.5673 92.7251C29.9322 91.9141 28.9858 91.7791 28.3776 91.9141C27.7695 92.0495 25.4043 94.4817 25.2018 93.8061C24.999 93.1304 25.945 88.8058 26.2153 87.8598C26.4857 86.9138 30.6079 85.7649 31.7563 85.4271C32.9051 85.0889 38.649 87.3191 39.9332 87.7244C41.217 88.1297 42.4334 89.6164 42.4334 90.6303C42.4334 91.6437 40.6763 96.4416 40.6763 96.4416Z" fill="#01DFE1"/>
<path d="M40.6763 96.4416C40.6763 96.4416 35.2028 93.5357 32.5673 92.7251C29.9322 91.9141 28.9858 91.7791 28.3776 91.9141C27.7695 92.0495 25.4043 94.4817 25.2018 93.8061C24.999 93.1304 25.945 88.8058 26.2153 87.8598C26.4857 86.9138 30.6079 85.7649 31.7563 85.4271C32.9051 85.0889 38.649 87.3191 39.9332 87.7244C41.217 88.1297 42.4334 89.6164 42.4334 90.6303C42.4334 91.6437 40.6763 96.4416 40.6763 96.4416Z" stroke="#263238" stroke-miterlimit="10"/>
<path d="M26.7287 89.2922C26.7287 89.2922 27.8324 88.4096 28.4944 88.8513C29.1568 89.2926 40.2897 95.5647 40.2897 95.5647L40.8552 89.7335" stroke="#263238" stroke-miterlimit="10"/>
<path d="M42.4362 71.5519C42.4362 71.5519 43.3967 74.4334 43.3967 75.1678C43.3967 75.9022 43.0577 77.0892 43.2837 77.5408C43.5097 77.9929 44.8656 80.0836 44.6395 80.4227C44.4139 80.7614 43.566 82.0046 43.566 82.0046C43.566 82.0046 43.3404 86.2419 43.1144 86.694C42.8883 87.1461 41.419 87.0898 40.7413 87.0898H39.3288C39.3288 87.0898 40.5716 95.4517 40.2892 95.5647C40.0069 95.6778 31.9273 87.4284 31.9273 87.4284L32.2096 81.3832C32.2096 81.3832 29.3845 77.2018 29.8366 75.3375C30.2887 73.4729 34.6957 72.004 37.0687 71.3822C39.4418 70.7608 42.4362 71.5519 42.4362 71.5519Z" fill="white"/>
<path d="M42.4362 71.5519C42.4362 71.5519 43.3967 74.4334 43.3967 75.1678C43.3967 75.9022 43.0577 77.0892 43.2837 77.5408C43.5097 77.9929 44.8656 80.0836 44.6395 80.4227C44.4139 80.7614 43.566 82.0046 43.566 82.0046C43.566 82.0046 43.3404 86.2419 43.1144 86.694C42.8883 87.1461 41.419 87.0898 40.7413 87.0898H39.3288C39.3288 87.0898 40.5716 95.4517 40.2892 95.5647C40.0069 95.6778 31.9273 87.4284 31.9273 87.4284L32.2096 81.3832C32.2096 81.3832 29.3845 77.2018 29.8366 75.3375C30.2887 73.4729 34.6957 72.004 37.0687 71.3822C39.4418 70.7608 42.4362 71.5519 42.4362 71.5519Z" stroke="#263238" stroke-miterlimit="10"/>
<path d="M41.8078 77.9152C41.8877 78.3445 41.766 78.7275 41.5358 78.7705C41.306 78.8132 41.0539 78.4998 40.974 78.0705C40.8941 77.6407 41.0158 77.2582 41.246 77.2156C41.4762 77.1729 41.7279 77.4859 41.8078 77.9152Z" fill="#263238"/>
<path d="M40.2892 76.411C40.2892 76.411 41.1363 75.3942 42.3228 75.8459" stroke="#263238" stroke-miterlimit="10"/>
<path d="M39.4418 81.0442C39.4418 81.0442 40.2892 82.287 41.8148 82.5131" stroke="#263238" stroke-miterlimit="10"/>
<path d="M33.2268 79.1795C33.2268 79.1795 34.6953 79.4056 34.6953 79.0102C34.6953 78.6144 34.5259 77.1455 34.5259 77.1455C34.5259 77.1455 36.504 75.5641 36.4473 74.8292C36.391 74.0948 35.4868 73.4729 35.5431 73.2469C35.5999 73.0209 38.2553 72.2305 40.4023 72.2305C42.5493 72.2305 43.0014 72.6822 43.6795 71.6654C44.3576 70.6482 44.866 69.292 43.5665 67.8794C42.2669 66.4668 41.6455 67.0882 40.9674 66.9189C40.2892 66.7492 38.312 64.7719 36.9557 65.224C35.5999 65.6757 35.4305 66.9189 35.4305 66.9189C35.4305 66.9189 32.8877 65.2244 31.8142 66.1282C30.7407 67.0323 30.6277 68.0487 30.6277 68.0487C30.6277 68.0487 28.9887 68.1054 28.2543 69.631C27.5198 71.1562 27.5761 72.0041 27.5761 72.0041C27.5761 72.0041 26.164 72.8515 26.2203 74.0944C26.277 75.3376 26.6724 75.9023 26.6724 75.9023C26.6724 75.9023 25.4858 76.4115 26.6724 78.2195C27.8589 80.0274 28.3114 80.2534 28.3114 80.2534C28.3114 80.2534 26.9551 80.4232 28.3114 81.553C29.6672 82.6828 32.1529 83.1349 32.718 83.4176C33.2827 83.7 33.3961 81.8353 33.3961 80.7055C33.3961 79.5753 33.2268 79.1795 33.2268 79.1795Z" fill="#263238"/>
<path d="M33.2268 79.1795C33.2268 79.1795 34.6953 79.4056 34.6953 79.0102C34.6953 78.6144 34.5259 77.1455 34.5259 77.1455C34.5259 77.1455 36.504 75.5641 36.4473 74.8292C36.391 74.0948 35.4868 73.4729 35.5431 73.2469C35.5999 73.0209 38.2553 72.2305 40.4023 72.2305C42.5493 72.2305 43.0014 72.6822 43.6795 71.6654C44.3576 70.6482 44.866 69.292 43.5665 67.8794C42.2669 66.4668 41.6455 67.0882 40.9674 66.9189C40.2892 66.7492 38.312 64.7719 36.9557 65.224C35.5999 65.6757 35.4305 66.9189 35.4305 66.9189C35.4305 66.9189 32.8877 65.2244 31.8142 66.1282C30.7407 67.0323 30.6277 68.0487 30.6277 68.0487C30.6277 68.0487 28.9887 68.1054 28.2543 69.631C27.5198 71.1562 27.5761 72.0041 27.5761 72.0041C27.5761 72.0041 26.164 72.8515 26.2203 74.0944C26.277 75.3376 26.6724 75.9023 26.6724 75.9023C26.6724 75.9023 25.4858 76.4115 26.6724 78.2195C27.8589 80.0274 28.3114 80.2534 28.3114 80.2534C28.3114 80.2534 26.9551 80.4232 28.3114 81.553C29.6672 82.6828 32.1529 83.1349 32.718 83.4176C33.2827 83.7 33.3961 81.8353 33.3961 80.7055C33.3961 79.5753 33.2268 79.1795 33.2268 79.1795Z" stroke="#263238" stroke-miterlimit="10"/>
<path d="M34.1306 79.7442C34.1306 79.7442 32.6613 77.8237 31.8701 78.4451C31.079 79.0665 31.5878 81.7786 32.4352 82.6261C33.2827 83.4735 34.5259 82.0042 34.5259 82.0042" fill="white"/>
<path d="M34.1306 79.7442C34.1306 79.7442 32.6613 77.8237 31.8701 78.4451C31.079 79.0665 31.5878 81.7786 32.4352 82.6261C33.2827 83.4735 34.5259 82.0042 34.5259 82.0042" stroke="#263238" stroke-miterlimit="10"/>
<path d="M39.3288 87.0893L36.892 87.0483L39.7303 89.9546L39.3288 87.0893Z" fill="#263238"/>
<path d="M39.3288 87.0893L36.892 87.0483L39.7303 89.9546L39.3288 87.0893Z" stroke="#263238" stroke-miterlimit="10"/>
<path d="M33.337 94.9195L44.8919 100.321L54.5129 87.5081C54.5129 87.5081 54.3955 84.2637 54.5335 83.7917C54.671 83.3193 55.8292 81.6365 56.0336 81.3673C56.2375 81.0981 56.6413 81.3706 56.707 81.7763C56.7722 82.182 56.5 82.5187 56.3632 82.8558C56.2259 83.1929 55.9515 83.9345 55.9515 83.9345L56.2837 84.9502L59.8808 82.1317C59.8808 82.1317 60.6978 81.0552 60.9655 81.5295C61.1279 81.8177 61.1044 82.1749 60.9055 82.4396L59.2589 84.6288L60.3398 84.7023L62.9872 82.4867C62.9872 82.4867 63.4615 82.2868 63.5257 82.8954C63.5662 83.2781 63.4233 83.6578 63.1404 83.9187L61.5162 85.418L60.4673 86.0543L63.5831 84.7877C63.5831 84.7877 63.9862 85.1952 63.8497 85.3973L60.4565 88.0142L62.9589 87.6223C62.9589 87.6223 63.2945 88.0973 63.0901 88.3665L56.1867 90.2879C56.1867 90.2879 46.4694 108.304 46.333 108.574C46.1961 108.843 44.7736 109.443 43.6945 109.1C42.615 108.755 28.8341 102.666 28.8341 102.666" fill="#01DFE1"/>
<path d="M33.337 94.9195L44.8919 100.321L54.5129 87.5081C54.5129 87.5081 54.3955 84.2637 54.5335 83.7917C54.671 83.3193 55.8292 81.6365 56.0336 81.3673C56.2375 81.0981 56.6413 81.3706 56.707 81.7763C56.7722 82.182 56.5 82.5187 56.3632 82.8558C56.2259 83.1929 55.9515 83.9345 55.9515 83.9345L56.2837 84.9502L59.8808 82.1317C59.8808 82.1317 60.6978 81.0552 60.9655 81.5295C61.1279 81.8177 61.1044 82.1749 60.9055 82.4396L59.2589 84.6288L60.3398 84.7023L62.9872 82.4867C62.9872 82.4867 63.4615 82.2868 63.5257 82.8954C63.5662 83.2781 63.4233 83.6578 63.1404 83.9187L61.5162 85.418L60.4673 86.0543L63.5831 84.7877C63.5831 84.7877 63.9862 85.1952 63.8497 85.3973L60.4565 88.0142L62.9589 87.6223C62.9589 87.6223 63.2945 88.0973 63.0901 88.3665L56.1867 90.2879C56.1867 90.2879 46.4694 108.304 46.333 108.574C46.1961 108.843 44.7736 109.443 43.6945 109.1C42.615 108.755 28.8341 102.666 28.8341 102.666" stroke="#263238" stroke-miterlimit="10"/>
<path d="M51.0811 99.7566C53.603 95.0791 56.1871 90.2884 56.1871 90.2884L63.0906 88.3666C63.2945 88.0974 62.9593 87.6227 62.9593 87.6227L60.4569 88.0142L63.8501 85.3974C63.9866 85.1957 63.5831 84.7877 63.5831 84.7877L60.4678 86.0544L61.5162 85.4185L63.1404 83.9188C63.4233 83.6579 63.5666 83.2782 63.5261 82.8954C63.462 82.2869 62.9876 82.4871 62.9876 82.4871L60.3403 84.7019L59.2593 84.6289L60.9059 82.4396C61.1048 82.1753 61.1279 81.8182 60.9655 81.53C60.6978 81.0553 59.8808 82.1322 59.8808 82.1322L56.2837 84.9503L55.9519 83.935C55.9519 83.935 56.2263 83.1929 56.3632 82.8559C56.5004 82.5188 56.7726 82.1825 56.7074 81.7768C56.6417 81.3707 56.2375 81.0981 56.0331 81.3673C55.8292 81.6366 54.6715 83.3197 54.5335 83.7918C54.3959 84.2642 54.5129 87.5082 54.5129 87.5082L47.3739 97.0166L51.0811 99.7566Z" fill="white"/>
<path d="M51.0811 99.7566C53.603 95.0791 56.1871 90.2884 56.1871 90.2884L63.0906 88.3666C63.2945 88.0974 62.9593 87.6227 62.9593 87.6227L60.4569 88.0142L63.8501 85.3974C63.9866 85.1957 63.5831 84.7877 63.5831 84.7877L60.4678 86.0544L61.5162 85.4185L63.1404 83.9188C63.4233 83.6579 63.5666 83.2782 63.5261 82.8954C63.462 82.2869 62.9876 82.4871 62.9876 82.4871L60.3403 84.7019L59.2593 84.6289L60.9059 82.4396C61.1048 82.1753 61.1279 81.8182 60.9655 81.53C60.6978 81.0553 59.8808 82.1322 59.8808 82.1322L56.2837 84.9503L55.9519 83.935C55.9519 83.935 56.2263 83.1929 56.3632 82.8559C56.5004 82.5188 56.7726 82.1825 56.7074 81.7768C56.6417 81.3707 56.2375 81.0981 56.0331 81.3673C55.8292 81.6366 54.6715 83.3197 54.5335 83.7918C54.3959 84.2642 54.5129 87.5082 54.5129 87.5082L47.3739 97.0166L51.0811 99.7566Z" stroke="#263238" stroke-miterlimit="10"/>
<path d="M146.156 44.5033V169.967C146.156 173.411 143.364 176.202 139.921 176.202H85.7092C82.2655 176.202 79.4739 173.411 79.4739 169.967V44.5C79.4739 41.058 82.2643 38.2681 85.7063 38.2681H108.975L108.995 38.3393C109.575 40.4263 110.91 41.7838 112.391 41.7838H113.24C114.721 41.7838 116.055 40.4263 116.635 38.3393L116.658 38.2681H139.921C143.364 38.2681 146.156 41.0597 146.156 44.5033Z" fill="white"/>
<path d="M146.156 44.5033V169.967C146.156 173.411 143.364 176.202 139.921 176.202H85.7092C82.2655 176.202 79.4739 173.411 79.4739 169.967V44.5C79.4739 41.058 82.2643 38.2681 85.7063 38.2681H108.975L108.995 38.3393C109.575 40.4263 110.91 41.7838 112.391 41.7838H113.24C114.721 41.7838 116.055 40.4263 116.635 38.3393L116.658 38.2681H139.921C143.364 38.2681 146.156 41.0597 146.156 44.5033Z" stroke="#263238" stroke-linecap="round" stroke-linejoin="round"/>
<path d="M146.156 48.0542V44.5033C146.156 41.0593 143.364 38.2681 139.921 38.2681H116.658L116.635 38.3397C116.055 40.4262 114.721 41.7838 113.24 41.7838H112.391C110.91 41.7838 109.575 40.4262 108.995 38.3397L108.975 38.2681H85.7063C82.2643 38.2681 79.4739 41.058 79.4739 44.5V48.0542H146.156Z" fill="#07274D"/>
<path d="M79.4739 166.615V169.966C79.4739 173.41 82.2655 176.202 85.7092 176.202H139.921C143.364 176.202 146.156 173.41 146.156 169.966V166.615H79.4739Z" fill="#07274D"/>
<path d="M150.396 74.4695V61.9386H149.263V45.8956C149.263 40.4342 144.835 36.0068 139.374 36.0068H86.2565C80.795 36.0068 76.3677 40.4342 76.3677 45.8956V173.376C76.3677 178.838 80.795 183.265 86.2565 183.265H139.374C144.835 183.265 149.263 178.838 149.263 173.376V85.1495H150.396V77.7451H149.263V74.4695H150.396ZM146.156 166.312C146.156 171.776 141.726 176.202 136.266 176.202H89.364C83.9037 176.202 79.4739 171.776 79.4739 166.312V48.1553C79.4739 42.695 83.9037 38.2685 89.364 38.2685H108.975L108.994 38.3393C109.574 40.4263 110.909 41.7842 112.39 41.7842H113.239C114.72 41.7842 116.055 40.4263 116.635 38.3393L116.658 38.2685H136.266C141.726 38.2685 146.156 42.695 146.156 48.1553V166.312Z" fill="#07274D"/>
<path d="M138.581 37.3689H87.0497C81.7824 37.3689 77.5124 41.6389 77.5124 46.9062V172.366C77.5124 177.633 81.7824 181.903 87.0497 181.903H138.581C143.848 181.903 148.118 177.633 148.118 172.366V46.9062C148.118 41.6389 143.848 37.3689 138.581 37.3689ZM146.156 166.664C146.156 171.932 141.886 176.202 136.618 176.202H89.0121C83.7443 176.202 79.4739 171.932 79.4739 166.664V47.8029C79.4739 42.5373 83.7431 38.2681 89.0092 38.2681H108.975L108.994 38.3393C109.574 40.4263 110.909 41.7842 112.39 41.7842H113.239C114.72 41.7842 116.055 40.4263 116.635 38.3393L116.658 38.2681H136.618C141.886 38.2681 146.156 42.5385 146.156 47.8062V166.664Z" fill="#07274D"/>
<path d="M113.54 38.7409C113.54 38.228 113.124 37.8127 112.611 37.8127C112.099 37.8127 111.683 38.228 111.683 38.7409C111.683 39.2535 112.099 39.6691 112.611 39.6691C113.124 39.6691 113.54 39.2535 113.54 38.7409Z" fill="white"/>
<path d="M85.4012 42.2983C85.4012 43.2377 84.3463 43.5759 84.3417 44.2926V44.3414H85.3656V44.6577H83.9994V44.3903C83.9994 43.3847 85.0542 43.1889 85.0542 42.3116C85.0542 41.9916 84.9474 41.8222 84.6891 41.8222C84.4353 41.8222 84.3239 42.0044 84.3239 42.2805V42.5567H83.9994V42.3029C83.9994 41.8268 84.2175 41.5105 84.6978 41.5105C85.183 41.5105 85.4012 41.8222 85.4012 42.2983Z" fill="white"/>
<path d="M87.1064 42.2938V42.3741C87.1064 42.695 86.9777 42.9218 86.7284 43.0154C86.9905 43.1131 87.1064 43.3491 87.1064 43.6608V43.9009C87.1064 44.3774 86.8841 44.6892 86.403 44.6892C85.9269 44.6892 85.7046 44.3774 85.7046 43.9009V43.6873H86.0292V43.9233C86.0292 44.204 86.1451 44.3729 86.3943 44.3729C86.6481 44.3729 86.7595 44.2081 86.7595 43.8922V43.6517C86.7595 43.3445 86.6303 43.198 86.3674 43.1889H86.1807V42.8771H86.3852C86.6167 42.8684 86.7595 42.7214 86.7595 42.4499V42.3074C86.7595 41.987 86.6481 41.8227 86.3943 41.8227C86.1451 41.8227 86.0292 41.9953 86.0292 42.276V42.4366H85.7046V42.2938C85.7046 41.8177 85.9269 41.5105 86.403 41.5105C86.8841 41.5105 87.1064 41.8177 87.1064 42.2938Z" fill="white"/>
<path d="M87.7792 42.9611H87.4455V42.5293H87.7792V42.9611ZM87.7792 44.6573H87.4455V44.2255H87.7792V44.6573Z" fill="white"/>
<path d="M88.4826 42.8104C88.5807 42.6411 88.7363 42.5521 88.9454 42.5521C89.3462 42.5521 89.5242 42.846 89.5242 43.2911V43.9009C89.5242 44.377 89.2973 44.6887 88.8212 44.6887C88.3447 44.6887 88.1224 44.377 88.1224 43.9009V43.6918H88.447V43.9232C88.447 44.2035 88.5629 44.3724 88.8121 44.3724C89.0613 44.3724 89.1772 44.2035 89.1772 43.9232V43.3176C89.1772 43.0373 89.0613 42.868 88.8121 42.868C88.6208 42.868 88.4917 42.9748 88.4606 43.2021V43.2733H88.1356L88.2201 41.5415H89.4484V41.8532H88.5314L88.4826 42.8104Z" fill="white"/>
<path d="M91.2559 42.2894V42.3478H90.9314V42.2675C90.9314 41.9872 90.8154 41.822 90.5617 41.822C90.2992 41.822 90.1833 41.9913 90.1833 42.325V43.0238C90.2677 42.8102 90.4371 42.6897 90.6863 42.6897C91.087 42.6897 91.2651 42.9795 91.2651 43.4291V43.9007C91.2651 44.3772 91.0287 44.6889 90.5526 44.6889C90.0719 44.6889 89.8359 44.3772 89.8359 43.9007V42.3122C89.8359 41.8179 90.0587 41.5103 90.5526 41.5103C91.0336 41.5103 91.2559 41.8133 91.2559 42.2894ZM90.1833 43.4556V43.9235C90.1833 44.2037 90.2992 44.3731 90.5526 44.3731C90.8022 44.3731 90.9223 44.2037 90.9223 43.9235V43.4556C90.9223 43.1749 90.8022 43.006 90.5526 43.006C90.2992 43.006 90.1833 43.1749 90.1833 43.4556Z" fill="white"/>
<path d="M125.272 44.6254H124.393V42.4263H125.272V44.6254Z" fill="white"/>
<path d="M126.445 44.6258H125.566V41.9854H126.445V44.6258Z" fill="white"/>
<path d="M127.618 44.626H126.739V41.6733H127.618V44.626Z" fill="white"/>
<path d="M128.791 44.6256H127.912V41.1289H128.791V44.6256Z" fill="white"/>
<path d="M139.679 44.5655H134.399V41.3396H139.679V44.5655ZM134.693 44.2724H139.386V41.6331H134.693V44.2724Z" fill="white"/>
<path d="M137.919 43.9532H135.133V41.9519H137.919V43.9532Z" fill="white"/>
<path d="M140.159 43.3326H139.495V42.5725H140.159V43.3326Z" fill="white"/>
<path d="M132.464 43.8636C132.43 43.8636 132.395 43.8545 132.363 43.8359C131.289 43.1975 130.579 43.7899 130.55 43.8152C130.468 43.8864 130.343 43.8769 130.272 43.7953C130.201 43.7133 130.208 43.5904 130.29 43.5188C130.328 43.4852 131.236 42.7073 132.565 43.4972C132.659 43.5527 132.689 43.6736 132.634 43.7672C132.597 43.8293 132.531 43.8636 132.464 43.8636Z" fill="white"/>
<path d="M132.862 43.2013C132.827 43.2013 132.792 43.1927 132.761 43.1736C131.207 42.25 130.164 43.1438 130.153 43.1521C130.071 43.2245 129.947 43.2158 129.875 43.1343C129.803 43.0527 129.811 42.9281 129.892 42.8565C129.905 42.8449 131.164 41.7664 132.963 42.835C133.056 42.8904 133.087 43.0113 133.031 43.1049C132.994 43.167 132.929 43.2013 132.862 43.2013Z" fill="white"/>
<path d="M133.223 42.4337C133.188 42.4337 133.153 42.425 133.121 42.406C131.154 41.2364 129.847 42.3377 129.792 42.3853C129.71 42.4565 129.585 42.4478 129.514 42.3662C129.442 42.2842 129.45 42.1605 129.532 42.0888C129.548 42.0748 131.101 40.7458 133.324 42.0673C133.417 42.1228 133.448 42.2441 133.392 42.3377C133.355 42.3993 133.29 42.4337 133.223 42.4337Z" fill="white"/>
<path d="M131.871 44.1942C131.871 44.4674 131.65 44.6889 131.377 44.6889C131.103 44.6889 130.882 44.4674 130.882 44.1942C130.882 43.921 131.103 43.6995 131.377 43.6995C131.65 43.6995 131.871 43.921 131.871 44.1942Z" fill="white"/>
<path d="M112.194 84.8699C122.247 84.8699 130.41 93.0325 130.41 103.086C130.41 113.139 122.247 121.302 112.194 121.302C102.14 121.302 93.9776 113.139 93.9776 103.086C93.9776 93.0325 102.14 84.8699 112.194 84.8699Z" fill="#01DFE1"/>
<path d="M112.194 84.8699C122.247 84.8699 130.41 93.0325 130.41 103.086C130.41 113.139 122.247 121.302 112.194 121.302C102.14 121.302 93.9776 113.139 93.9776 103.086C93.9776 93.0325 102.14 84.8699 112.194 84.8699Z" stroke="#263238" stroke-width="1.7"/>
<mask id="mask1_438_506" style="mask-type:alpha" maskUnits="userSpaceOnUse" x="89" y="71" width="57" height="57">
<path d="M101.74 96.3585C105.086 100.49 111.78 108.753 111.78 108.753C111.78 108.753 126.063 92.1754 133.204 83.8867" stroke="white" stroke-width="24" stroke-linecap="round"/>
</mask>
<g mask="url(#mask1_438_506)">
<path d="M111.625 111.124C111.603 111.124 111.578 111.124 111.556 111.123C110.82 111.103 110.134 110.753 109.685 110.171L100.888 98.7871C100.059 97.7156 100.257 96.1751 101.329 95.3467C102.398 94.5204 103.94 94.7154 104.767 95.7885L111.734 104.802L129.953 83.7796C130.839 82.7562 132.386 82.644 133.412 83.5332C134.436 84.4204 134.546 85.9688 133.66 86.9922L113.479 110.278C113.012 110.816 112.336 111.124 111.625 111.124Z" fill="#263238"/>
</g>
</g>
<defs>
<linearGradient id="paint0_linear_438_506" x1="146.349" y1="191.682" x2="148.005" y2="85.698" gradientUnits="userSpaceOnUse">
<stop stop-color="#07274D"/>
<stop offset="0.5" stop-color="#058397"/>
<stop offset="1" stop-color="#02DFE1"/>
</linearGradient>
</defs>
</svg>
