<svg width="348" height="225" viewBox="0 0 348 225" fill="none" xmlns="http://www.w3.org/2000/svg">
<g clip-path="url(#clip0_437_5)">
<mask id="mask0_437_5" style="mask-type:luminance" maskUnits="userSpaceOnUse" x="0" y="0" width="348" height="225">
<path d="M348 0H0V225H348V0Z" fill="white"/>
</mask>
<g mask="url(#mask0_437_5)">
<path d="M284.312 200.56H62.5309C60.4101 200.56 58.6751 198.828 58.6751 196.71V20.7144C58.6751 18.5967 60.4101 16.8638 62.5309 16.8638H284.312C286.433 16.8638 288.168 18.5967 288.168 20.7144V196.71C288.168 198.828 286.433 200.56 284.312 200.56Z" fill="#2FC5CC"/>
<path d="M65.6114 191.516V25.9085C65.6114 24.5262 66.7332 23.4058 68.1175 23.4058H278.726C280.11 23.4058 281.232 24.5262 281.232 25.9085V191.516C281.232 192.898 280.11 194.018 278.726 194.018H68.1175C66.7332 194.018 65.6114 192.898 65.6114 191.516Z" fill="#0A9B9B"/>
<path d="M273.962 189.085H72.8814C71.9872 189.085 71.2622 188.361 71.2622 187.469V29.9551C71.2622 29.0624 71.9872 28.3386 72.8814 28.3386H273.962C274.856 28.3386 275.581 29.0624 275.581 29.9551V187.469C275.581 188.361 274.856 189.085 273.962 189.085Z" fill="#C5F4FF"/>
<path d="M44.897 188.729C49.5024 196.308 57.8473 201.401 67.3265 201.401H279.516C288.995 201.401 297.341 196.308 301.946 188.729H44.897Z" fill="#0A9B9B"/>
<path d="M47.6405 192.448H299.203C300.219 191.291 301.143 190.051 301.946 188.729H44.897C45.7 190.051 46.6237 191.291 47.6405 192.448Z" fill="#2FC5CC"/>
<path d="M53.7942 166.531C53.7942 167.982 52.6162 169.159 51.1621 169.159C49.7081 169.159 48.5299 167.982 48.5299 166.531C48.5299 165.079 49.7081 163.901 51.1621 163.901C52.6162 163.901 53.7942 165.079 53.7942 166.531Z" fill="#3C9CFF"/>
<path d="M41.3093 155.573C44.188 155.573 46.5252 157.907 46.5252 160.781C46.5252 163.656 44.188 165.99 41.3093 165.99C38.4307 165.99 36.0935 163.656 36.0935 160.781C36.0935 157.907 38.4307 155.573 41.3093 155.573Z" stroke="#FEBA40" stroke-width="13"/>
<path d="M44.2824 170.312V181.198" stroke="#30C5CC" stroke-width="13"/>
<path d="M38.8058 175.781H49.9155" stroke="#30C5CC" stroke-width="13"/>
<path d="M297.354 35.9375V46.8229" stroke="#30C5CC" stroke-width="13"/>
<path d="M291.878 41.4062H302.987" stroke="#30C5CC" stroke-width="13"/>
<path d="M281.779 11.0954C281.779 12.5462 280.601 13.7237 279.147 13.7237C277.693 13.7237 276.515 12.5462 276.515 11.0954C276.515 9.64332 277.693 8.46582 279.147 8.46582C280.601 8.46582 281.779 9.64332 281.779 11.0954Z" fill="#3C9CFF"/>
<path d="M265.799 1.40625C268.677 1.40625 271.014 3.7401 271.014 6.61458C271.014 9.48906 268.677 11.8229 265.799 11.8229C262.92 11.8229 260.583 9.48906 260.583 6.61458C260.583 3.7401 262.92 1.40625 265.799 1.40625Z" stroke="#FEBA40" stroke-width="13"/>
<path d="M111.452 45.1248H85.4601V42.1689H111.452V45.1248Z" fill="#2FC5CC"/>
<path d="M128.535 45.1248H115.416V42.1689H128.535V45.1248Z" fill="#2FC5CC"/>
<path d="M138.28 45.1248H132.643V42.1689H138.28V45.1248Z" fill="#2FC5CC"/>
<path d="M164.694 45.1248H143.204V42.1689H164.694V45.1248Z" fill="#2FC5CC"/>
<path d="M183.236 45.1248H170.162V42.1689H183.236V45.1248Z" fill="#2FC5CC"/>
<path d="M98.3315 53.7598H85.4601V50.804H98.3315V53.7598Z" fill="#2FC5CC"/>
<path d="M115.17 53.7598H102.051V50.804H115.17V53.7598Z" fill="#2FC5CC"/>
<path d="M140.376 53.7598H118.771V50.804H140.376V53.7598Z" fill="#2FC5CC"/>
<path d="M151.266 53.7598H143.204V50.804H151.266V53.7598Z" fill="#2FC5CC"/>
<path d="M162.534 53.7598H154.472V50.804H162.534V53.7598Z" fill="#2FC5CC"/>
<mask id="mask1_437_5" style="mask-type:luminance" maskUnits="userSpaceOnUse" x="219" y="40" width="39" height="38">
<path d="M219.273 40H257.245V77.9167H219.273V40Z" fill="white"/>
</mask>
<g mask="url(#mask1_437_5)">
<path d="M257.135 77.8341H219.399V40.1528H257.135V77.8341Z" fill="#DB5A28"/>
<path d="M230.527 45.4958C233.405 45.4958 235.742 47.8297 235.742 50.7042C235.742 53.5787 233.405 55.9125 230.527 55.9125C227.648 55.9125 225.311 53.5787 225.311 50.7042C225.311 47.8297 227.648 45.4958 230.527 45.4958Z" stroke="#FEBA40" stroke-width="15"/>
</g>
<mask id="mask2_437_5" style="mask-type:luminance" maskUnits="userSpaceOnUse" x="86" y="60" width="59" height="47">
<path d="M86.8435 60.1562H144.009V106.615H86.8435V60.1562Z" fill="white"/>
</mask>
<g mask="url(#mask2_437_5)">
<path d="M143.887 106.569H86.8738V60.113H143.887V106.569Z" fill="white"/>
<path d="M132.299 64.1926V75.078" stroke="#FDBE44" stroke-width="13"/>
<path d="M126.823 69.6614H137.933" stroke="#FDBE44" stroke-width="13"/>
<path d="M98.296 89.3157C101.175 89.3157 103.512 91.6495 103.512 94.524C103.512 97.3985 101.175 99.7323 98.296 99.7323C95.4174 99.7323 93.0802 97.3985 93.0802 94.524C93.0802 91.6495 95.4174 89.3157 98.296 89.3157Z" stroke="#30C5CC" stroke-width="15"/>
</g>
<mask id="mask3_437_5" style="mask-type:luminance" maskUnits="userSpaceOnUse" x="87" y="111" width="58" height="6">
<path d="M87.5998 111.458H144.557V116.042H87.5998V111.458Z" fill="white"/>
</mask>
<g mask="url(#mask3_437_5)">
<path d="M103.628 115.887H87.608V111.48H103.628V115.887Z" fill="#30D0A8"/>
<path d="M124.027 115.887H108.007V111.48H124.027V115.887Z" fill="#30D0A8"/>
<path d="M141.785 115.887H128.406V111.48H141.785V115.887Z" fill="#30D0A8"/>
</g>
<mask id="mask4_437_5" style="mask-type:luminance" maskUnits="userSpaceOnUse" x="148" y="86" width="113" height="22">
<path d="M148.129 86.875H260.374V107.917H148.129V86.875Z" fill="white"/>
</mask>
<g mask="url(#mask4_437_5)">
<path d="M260.226 107.909H148.103V86.959H260.226V107.909Z" fill="#4BAFDD"/>
<path d="M256.871 104.878H226.528V89.991H256.871V104.878Z" fill="white"/>
<path d="M222.335 93.7655H152.203V90.8943H222.335V93.7655Z" fill="#75D4EE"/>
<path d="M222.335 98.8702H152.203V95.9985H222.335V98.8702Z" fill="#75D4EE"/>
<path d="M199.419 103.975H152.203V101.104H199.419V103.975Z" fill="#75D4EE"/>
</g>
<path d="M144.453 155.813H87.3255V123.889H144.453V155.813Z" fill="#DB5A28"/>
<mask id="mask5_437_5" style="mask-type:luminance" maskUnits="userSpaceOnUse" x="148" y="122" width="108" height="52">
<path d="M148.129 122.839H255.784V173.047H148.129V122.839Z" fill="white"/>
</mask>
<g mask="url(#mask5_437_5)">
<path d="M255.878 173.28H148.129V122.797H255.878V173.28Z" fill="white"/>
<path d="M255.878 122.797H148.129V131.167H255.878V122.797Z" fill="#FCBD44"/>
<path d="M155.811 127.192C155.811 128.358 154.864 129.304 153.696 129.304C152.528 129.304 151.581 128.358 151.581 127.192C151.581 126.025 152.528 125.08 153.696 125.08C154.864 125.08 155.811 126.025 155.811 127.192Z" fill="#DB5A28"/>
<path d="M162.588 127.192C162.588 128.358 161.64 129.304 160.473 129.304C159.305 129.304 158.358 128.358 158.358 127.192C158.358 126.025 159.305 125.08 160.473 125.08C161.64 125.08 162.588 126.025 162.588 127.192Z" fill="#FFE780"/>
<path d="M170.449 127.192C170.449 128.358 169.502 129.304 168.334 129.304C167.166 129.304 166.219 128.358 166.219 127.192C166.219 126.025 167.166 125.08 168.334 125.08C169.502 125.08 170.449 126.025 170.449 127.192Z" fill="#1FB187"/>
<path d="M173.169 140.351H150.742V136.09H173.169V140.351Z" fill="#97DBE4"/>
<path d="M212.96 147.33H150.742V143.069H212.96V147.33Z" fill="#97DBE4"/>
<path d="M206.538 154.906H150.742V150.645H206.538V154.906Z" fill="#97DBE4"/>
<path d="M188.374 162.481H150.742V158.22H188.374V162.481Z" fill="#97DBE4"/>
<path d="M254.179 171.001H216.39V133.266H254.179V171.001Z" fill="#85D2E8"/>
<path d="M237.392 151.955C237.684 151.562 237.859 151.077 237.859 150.549V149.13C237.859 147.824 236.799 146.765 235.491 146.765C234.182 146.765 233.122 147.824 233.122 149.13V150.549C233.122 151.104 233.314 151.613 233.634 152.016C231.461 152.78 229.903 154.847 229.903 157.279H241.617C241.617 157.279 241.164 153.047 237.392 151.955Z" fill="#F6FFF9"/>
</g>
<mask id="mask6_437_5" style="mask-type:luminance" maskUnits="userSpaceOnUse" x="141" y="26" width="56" height="33">
<path d="M141.245 26.4583H196.95V58.1249H141.245V26.4583Z" fill="white"/>
</mask>
<g mask="url(#mask6_437_5)">
<path d="M196.857 45.347L146.094 57.7757L141.458 38.8922L192.22 26.4636L196.857 45.347Z" fill="#FDB940"/>
<path d="M182.801 34.2529L145.41 43.4075L144.769 40.7969L182.16 31.6421L182.801 34.2529Z" fill="#FDDB9B"/>
<path d="M177.793 40.3982L146.55 48.0478L145.908 45.4369L177.152 37.7874L177.793 40.3982Z" fill="#FDDB9B"/>
<path d="M162.622 49.501L147.798 53.1308L147.156 50.5198L161.98 46.8904L162.622 49.501Z" fill="#FDDB9B"/>
<path d="M187.289 38.1431L179.349 40.087L178.709 37.4776L186.648 35.5337L187.289 38.1431Z" fill="white"/>
</g>
<path d="M165.802 220.185C165.802 222.787 149.787 224.896 130.031 224.896C110.276 224.896 94.2613 222.787 94.2613 220.185C94.2613 217.584 110.276 215.475 130.031 215.475C149.787 215.475 165.802 217.584 165.802 220.185Z" fill="#ADE3EC"/>
<mask id="mask7_437_5" style="mask-type:luminance" maskUnits="userSpaceOnUse" x="67" y="101" width="125" height="125">
<path d="M67.1798 101.458H191.108V225.208H67.1798V101.458Z" fill="white"/>
</mask>
<g mask="url(#mask7_437_5)">
<path d="M148.393 214.968C147.035 210.614 144.397 192.194 143.807 184.98C143.683 183.452 126.872 176.895 126.872 176.895C117.032 176.646 111.967 180.5 111.967 180.5L135.596 188.47C135.596 199.111 144.681 215.161 144.681 215.161L148.393 214.968Z" fill="#2E2E8E"/>
<path d="M128.123 190.584L121.106 214.986L125.114 215.858C126.861 210.102 136.96 190.375 137.234 188.029C137.351 187.03 137.279 186.257 136.905 185.945C136.529 185.63 125.203 178.872 121.913 178.133C117.507 177.145 110.963 175.561 110.963 175.561C110.963 175.561 107.275 179.413 107.993 185.678C108.712 191.944 128.123 190.584 128.123 190.584Z" fill="#4B48A1"/>
<path d="M118.654 147.675C118.654 147.675 110.964 148.356 110.614 150.449C110.265 152.542 114.283 165.791 114.283 165.791L110.376 176.203C110.376 176.203 121.468 178.929 126.872 176.896C127.385 177.131 128.259 165.966 128.259 165.966L130.184 160.48L132.627 168.757L138.217 176.607L141.885 173.642L137.812 166.491C137.812 166.491 131.506 152.122 129.831 150.449C126.687 147.309 118.654 147.675 118.654 147.675Z" fill="white"/>
<path d="M124.749 148.227L124.153 140.331H118.388V147.707C117.659 147.789 119.175 153.676 123.82 153.676C123.82 153.676 125.988 152.891 124.749 148.227Z" fill="#E67750"/>
<path d="M113.063 161.605C113.736 163.986 114.283 165.791 114.283 165.791L110.376 176.203C110.376 176.203 118.816 178.276 124.559 177.456C124.045 177.08 117.237 172.499 116.903 170.501C116.205 166.314 113.063 161.605 113.063 161.605Z" fill="#EEEEEE"/>
<path d="M129.883 132.358C129.395 130.337 126.237 129.751 121.245 130.338C117.849 130.736 117.086 133.856 116.991 136.176C116.94 136.188 116.889 136.194 116.838 136.209C115.666 136.569 114.831 137.707 114.895 138.945C114.928 139.578 115.151 140.155 115.569 140.624C116.01 141.341 116.762 141.823 117.623 141.933C117.864 141.964 118.101 141.952 118.333 141.919C119.747 144.857 122.34 148.518 125.978 148.081C131.313 144.357 129.883 132.358 129.883 132.358Z" fill="#FC9E70"/>
<path d="M118.452 137.679C118.452 137.679 117.349 135.039 119.837 133.174C122.324 131.309 122.492 134.062 125.114 134.399C127.736 134.737 130.325 134.524 130.043 136.254C131.63 132.344 129.335 130.107 126.769 128.882C124.204 127.657 120.186 127.128 117.395 129.454C114.604 131.779 114.982 137.365 114.982 137.365C116.822 136.477 117.315 137.196 118.452 137.679Z" fill="#1F1251"/>
<path d="M117.395 129.454C117.395 129.454 115.078 123.239 110.689 124.778C106.3 126.316 108.279 135.149 107.794 138.993C107.31 142.835 104.553 143.004 103.563 141.296C101.728 144.779 108.918 148.32 111.259 144.971C113.601 141.623 112.252 133.139 113.749 132.274C115.246 131.409 116.753 132.533 116.753 132.533L117.395 129.454Z" fill="#1F1251"/>
<path d="M110.789 149.751C108.942 150.815 105.548 163.523 105.548 165.617C105.548 167.71 121.913 178.133 121.913 178.133C121.913 178.133 122.669 175.56 124.416 175.037C124.066 174.863 112.186 163.523 112.186 163.523L115.331 154.636C115.331 154.636 115.331 147.134 110.789 149.751Z" fill="white"/>
<path d="M120.662 179.735L137.343 179.224L148.175 183.236L129.839 184.208L120.662 179.735Z" fill="#2FC5CC"/>
<path d="M129.839 184.207L120.662 180.658V179.735L130.565 183.302L129.839 184.207Z" fill="#0A9B9B"/>
<path d="M129.839 184.207L135.353 169.175L153.59 170.152L148.175 183.585L129.839 184.207Z" fill="#0A9B9B"/>
<path d="M141.04 175.825C140.498 176.908 140.662 178.087 141.406 178.459C142.15 178.831 143.194 178.255 143.736 177.172C144.278 176.09 144.115 174.91 143.37 174.538C142.626 174.166 141.583 174.743 141.04 175.825Z" fill="#2FC5CC"/>
<path d="M124.415 175.037C124.415 175.037 131.054 180.27 130.355 180.619C129.656 180.968 126.687 180.968 125.114 180.096C123.542 179.224 121.913 178.133 121.913 178.133C121.913 178.133 122.494 175.211 124.415 175.037Z" fill="#FC9E70"/>
<path d="M125.289 214.637C126.468 215.829 130.477 217.638 132.452 218.126C134.569 218.65 134.199 220.426 132.651 220.426C129.613 220.426 122.855 220.045 119.524 220.045C119 218.475 119.902 216.376 120.963 214.961C121.285 214.53 125.12 214.467 125.289 214.637Z" fill="#1F1251"/>
<path d="M149.223 214.637C150.401 215.829 154.411 217.638 156.386 218.126C158.504 218.65 158.133 220.426 156.585 220.426C153.547 220.426 146.789 220.045 143.458 220.045C142.934 218.475 143.837 216.376 144.897 214.961C145.22 214.53 149.054 214.467 149.223 214.637Z" fill="#1F1251"/>
</g>
<path d="M309.807 214.298C309.807 216.249 293.616 217.831 273.644 217.831C253.672 217.831 237.481 216.249 237.481 214.298C237.481 212.347 253.672 210.766 273.644 210.766C293.616 210.766 309.807 212.347 309.807 214.298Z" fill="#ADE3EC"/>
<path d="M309.807 214.298C309.807 216.249 293.616 217.831 273.644 217.831C253.672 217.831 237.481 216.249 237.481 214.298C237.481 212.347 253.672 210.766 273.644 210.766C293.616 210.766 309.807 212.347 309.807 214.298Z" fill="#ADE3EC"/>
<mask id="mask8_437_5" style="mask-type:luminance" maskUnits="userSpaceOnUse" x="209" y="50" width="134" height="175">
<path d="M209.468 50H342.158V225H209.468V50Z" fill="white"/>
</mask>
<g mask="url(#mask8_437_5)">
<path d="M272.235 207.545C272.235 207.545 272.56 208.536 269.516 209.923C266.472 211.311 263.258 210.821 262.47 211.986C261.681 213.151 261.497 214.254 261.497 214.254H278.817C278.817 214.254 278.686 209.479 276.725 207.359C276.975 207.815 272.235 207.545 272.235 207.545Z" fill="#9E462C"/>
<path d="M291.098 207.538C291.098 207.538 291.411 208.491 288.484 209.825C285.557 211.158 282.467 210.687 281.709 211.807C280.951 212.927 280.774 213.989 280.774 213.989H297.427C297.427 213.989 297.301 209.397 295.415 207.359C295.655 207.797 291.098 207.538 291.098 207.538Z" fill="#9E462C"/>
<path d="M268.821 116.601L256.246 118.809L247.401 99.904L260.944 98.8L268.821 116.601Z" fill="white"/>
<path d="M253.121 114.69C253.124 114.688 253.128 114.688 253.132 114.689C253.087 114.709 253.081 114.71 253.121 114.69Z" fill="#252845"/>
<path d="M277.527 81.137C277.527 81.137 275.869 84.4487 275.869 87.4847C275.869 89.6068 276.139 92.6728 276.302 94.3262C276.361 94.9276 276.956 95.3241 277.535 95.1464L280.015 94.3845L279.877 97.9722L286.796 97.8524L288.306 83.3449C288.306 83.3449 282.502 76.997 277.527 81.137Z" fill="#FC9E70"/>
<path d="M278.049 88.7538C278.049 88.7538 278.438 85.8811 280.608 86.4759C282.778 87.0707 280.291 89.9686 280.291 89.9686L282.364 93.6944C283.882 94.2434 285.56 94.2827 287.201 93.5563C287.201 93.5563 289.504 86.5646 289.504 84.3569C289.504 82.149 287.488 80.6579 287.488 80.6579C287.488 80.6579 282.087 77.9631 279.185 78.1011C276.283 78.239 276.007 81.1369 276.007 81.1369C276.007 81.1369 274.901 83.3448 276.007 84.3106C277.113 85.2767 278.049 88.7538 278.049 88.7538Z" fill="#1F1251"/>
<path d="M287.109 95.8561L286.796 97.8524L279.646 97.8801C279.646 97.8801 281.028 95.6721 287.109 95.8561Z" fill="#6AA4CC"/>
<path d="M256.522 113.703C256.522 113.703 257.022 112.138 255.002 111.219C255.054 110.852 254.597 109.021 254.173 108.598C253.748 108.175 253.482 110.529 253.482 110.529C253.482 110.529 251.503 107.011 250.995 107.908C250.486 108.805 255.463 115.727 255.601 116.003C255.739 116.279 256.522 113.703 256.522 113.703Z" fill="#FC9E70"/>
<path d="M275.132 136.426L270.341 176.904L271.313 208.281L277.343 207.851C277.343 207.851 279.047 191.348 279.186 187.208C279.324 183.068 278.08 176.72 278.08 176.72L284.16 151.697L285.171 151.881L285.45 176.536L290.989 207.851L296.058 208.095C296.058 208.095 296.183 191.945 295.768 187.944C295.354 183.942 293.189 175.938 293.189 175.938L295.4 150.409C295.4 150.409 297.611 143.694 293.65 136.15C293.143 136.196 275.132 136.426 275.132 136.426Z" fill="#1F1251"/>
<path d="M279.646 97.88C279.646 97.88 271.078 100.64 269.512 102.204C267.946 103.768 263.455 119.887 263.455 119.887L256.685 113.114L254.587 118.027C254.587 118.027 262.51 129.803 264.998 130.171C267.485 130.538 273.105 115.267 273.105 115.267C273.105 115.267 273.616 123.609 274.579 127.779C275.685 132.562 275.132 136.426 275.132 136.426C282.799 137.816 289.319 137.53 293.649 136.15L295.795 120.079C295.795 120.079 298.717 120.419 299.638 119.407C300.559 118.395 296.321 101.744 295.4 100.456C294.479 99.1681 286.796 97.8523 286.796 97.8523L279.646 97.88Z" fill="#95C4EA"/>
<path d="M287.989 108.93C287.943 108.603 287.403 108.683 287.415 109.007C287.672 115.924 287.438 122.666 286.35 129.514C286.277 129.973 286.961 130.183 287.064 129.711C288.534 122.941 288.956 115.801 287.989 108.93Z" fill="#6AA4CC"/>
<path d="M295.852 114.053C295.806 113.822 295.454 113.883 295.45 114.108C295.376 118.149 294.876 122.013 294.108 125.981C293.426 129.507 292.802 133.037 293.031 136.642C293.063 137.147 293.845 137.154 293.823 136.642C293.648 132.478 294.497 128.458 295.255 124.387C295.885 121.007 296.536 117.474 295.852 114.053Z" fill="#6AA4CC"/>
<path d="M273.89 113.93C271.589 115.39 270.725 118.248 269.845 120.679C268.653 123.969 267.462 127.2 264.868 129.669C264.481 130.036 265.058 130.604 265.451 130.251C270.241 125.945 270.013 118.906 274.098 114.2C274.219 114.06 274.064 113.82 273.89 113.93Z" fill="#6AA4CC"/>
<path d="M293.742 134.954C293.742 134.954 282.133 136.426 275.132 134.218C275.316 134.218 275.132 136.426 275.132 136.426C275.132 136.426 284.058 139.77 294.294 137.162C294.213 137.13 293.742 134.954 293.742 134.954Z" fill="#9E462C"/>
</g>
<mask id="mask9_437_5" style="mask-type:luminance" maskUnits="userSpaceOnUse" x="117" y="19" width="141" height="190">
<path d="M117.93 19.8958H257.297V208.229H117.93V19.8958Z" fill="white"/>
</mask>
<g mask="url(#mask9_437_5)">
<path d="M173.889 181.964C173.889 181.964 172.928 184.057 171.268 184.406C169.608 184.755 165.241 185.715 164.542 186.325C163.843 186.936 163.843 188.506 163.843 188.506H177.706C177.706 188.506 177.682 184.315 176.877 182.136C177.208 182.138 173.889 181.964 173.889 181.964Z" fill="#1A1339"/>
<path d="M200.618 181.964C200.618 181.964 199.657 184.057 197.997 184.406C196.338 184.755 191.97 185.715 191.271 186.325C190.572 186.936 190.572 188.506 190.572 188.506H204.436C204.436 188.506 204.411 184.315 203.606 182.136C203.937 182.138 200.618 181.964 200.618 181.964Z" fill="#1A1339"/>
<path d="M198.918 45.9102C198.918 45.9102 195.056 44.9264 194.823 45.5404C194.59 46.1543 200.792 47.9862 200.792 47.9862L206.377 63.4493L204.286 68.3969L208.13 72.5837C208.13 72.5837 212.323 66.9139 212.672 65.2568C213.021 63.5996 202.714 46.9393 202.714 46.9393C202.714 46.9393 200.669 40.4481 200.356 40.1358C200.043 39.8237 196.35 40.0198 195.514 40.0341C194.678 40.0487 197.948 43.3546 197.948 43.3546L198.918 45.9102Z" fill="#E79573"/>
<path d="M183.895 57.3568C183.895 57.3568 182.056 59.9361 181.662 62.6836C181.269 65.4314 181.794 68.048 181.794 68.048L185.17 67.9366V71.0911H191.883C191.883 71.0911 192.014 68.7022 192.276 67.3936C192.538 66.0853 194.372 63.5997 194.372 63.5997L191.358 55.0951L187.035 54.7024L183.895 57.3568Z" fill="#E79573"/>
<path d="M185.593 61.3754C185.593 61.3754 186.772 58.6279 188.214 59.6744C189.655 60.7211 187.821 62.9454 187.821 62.9454C187.821 62.9454 188.738 66.7398 190.31 67.2631L191.883 67.7863C191.883 67.7863 195.944 63.9921 196.6 62.9454C197.255 61.8988 195.551 55.8802 194.372 54.5719C193.193 53.2634 188.083 53.3942 187.69 52.74C187.297 52.0859 185.986 50.9084 184.676 51.4317C183.366 51.955 183.628 56.2727 183.628 56.2727C183.628 56.2727 185.248 57.6652 185.355 58.6698C185.462 59.6744 184.712 61.0052 184.712 61.0052L185.593 61.3754Z" fill="#1F1251"/>
<path d="M179.246 71.2924C179.246 71.2924 185.943 70.3159 189.786 70.2286C193.63 70.1414 199.744 72.1476 199.744 72.1476L204.194 67.3899L209.863 72.7097C209.863 72.7097 205.038 79.8207 203.483 81.4793C201.928 83.1378 200.792 90.9009 200.443 93.2561C200.094 95.6111 199.22 109.393 199.22 109.393C199.22 109.393 195.115 114.277 178.256 108.957C178.081 108.782 178.955 98.8384 178.868 96.3961C178.78 93.9538 176.596 85.6674 176.159 83.6614C175.723 81.6551 168.758 77.6405 168.758 77.6405C168.758 77.6405 167.897 72.7534 171.111 70.4007C171.53 70.6647 179.246 71.2924 179.246 71.2924Z" fill="#1F1251"/>
<path d="M163.668 51.3009C163.668 51.3009 161.135 53.6559 160.96 54.6155C160.786 55.575 164.446 66.5038 164.446 66.5038L171.111 70.4009L168.758 77.6407C168.758 77.6407 161.485 72.5838 160.436 71.1011C159.388 69.6182 157.554 54.7898 157.554 54.7898C157.554 54.7898 155.195 51.8242 155.021 51.0392C154.846 50.2542 154.296 47.6867 154.702 47.1823C155.108 46.678 157.81 43.8848 158.206 44.7144C158.602 45.544 160.057 51.5857 160.057 51.5857C160.057 51.5857 163.057 50.2542 163.668 51.3009Z" fill="#E79573"/>
<path d="M178.256 108.956L174.456 144.719L172.491 182.662L179.042 182.923C179.042 182.923 183.104 157.749 183.17 153.916C183.235 150.083 183.104 145.504 183.104 145.504L187.297 126.402H189.655L194.503 151.26L199.482 182.138L204.723 182.4C204.723 182.4 205.509 163.167 204.723 159.242C203.937 155.317 202.758 151.522 202.758 151.522L200.399 125.747C200.399 125.747 202.496 116.589 199.22 109.393C198.565 108.084 178.256 108.956 178.256 108.956Z" fill="#4B48A1"/>
</g>
</g>
</g>
<defs>
<clipPath id="clip0_437_5">
<rect width="348" height="225" fill="white"/>
</clipPath>
</defs>
</svg>
